<svg class="animated" id="freepik_stories-asset-selection" xmlns="http://www.w3.org/2000/svg" viewBox="0 0 750 500" version="1.1" xmlns:xlink="http://www.w3.org/1999/xlink" xmlns:svgjs="http://svgjs.com/svgjs"><style>svg#freepik_stories-asset-selection:not(.animated) .animable {opacity: 0;}svg#freepik_stories-asset-selection.animated #freepik--Character--inject-61 {animation: 1.5s Infinite  linear floating;animation-delay: 0s;}            @keyframes floating {                0% {                    opacity: 1;                    transform: translateY(0px);                }                50% {                    transform: translateY(-10px);                }                100% {                    opacity: 1;                    transform: translateY(0px);                }            }        </style><g id="freepik--background-complete--inject-61" class="animable" style="transform-origin: 375.095px 246.795px;"><g id="elrrk2d3ccig"><rect x="72.63" y="75.3" width="26.48" height="11.19" style="fill: rgb(235, 235, 235); transform-origin: 85.87px 80.895px; transform: rotate(180deg);" class="animable" id="el2mo56fw0sjj"></rect></g><path d="M87.4,61.19l13.12-.28,6.67-.11c2.22,0,4.46,0,6.69-.06h.44v.45l0,11.19v.5h-.5l-13.24-.06c-4.41,0-8.83-.12-13.24-.17h-.28v-.27c0-1.9.08-3.79.13-5.65Zm0,0,.14,5.65c0,1.87.11,3.71.13,5.54l-.27-.27c4.41,0,8.83-.16,13.24-.17l13.24-.06-.5.5.05-11.19.45.45c-2.18,0-4.36,0-6.55-.06l-6.57-.11Z" style="fill: rgb(235, 235, 235); transform-origin: 100.69px 66.81px;" id="el84utkdi9kbw" class="animable"></path><path d="M57.86,61.19,71,60.91l6.66-.11c2.23,0,4.47,0,6.7-.06h.44v.45l.06,11.19v.5h-.5L71.1,72.82c-4.42,0-8.83-.12-13.24-.17h-.28v-.27c0-1.9.09-3.79.13-5.65Zm0,0L58,66.84c0,1.87.11,3.71.13,5.54l-.27-.27c4.41,0,8.82-.16,13.24-.17l13.24-.06-.5.5,0-11.19.45.45c-2.19,0-4.36,0-6.55-.06l-6.58-.11Z" style="fill: rgb(235, 235, 235); transform-origin: 71.22px 66.81px;" id="el7no543t2kka" class="animable"></path><path d="M623.36,287.6l13.12-.28,6.66-.11c2.23,0,4.47,0,6.7-.06h.44v.45l.06,11.19v.5h-.5l-13.24-.06c-4.41,0-8.83-.12-13.24-.17h-.28v-.27c0-1.9.08-3.79.13-5.66Zm0,0,.14,5.65c0,1.87.11,3.71.13,5.54l-.27-.27c4.41-.06,8.83-.16,13.24-.17l13.24-.06-.5.5,0-11.19.45.44c-2.18,0-4.36,0-6.55-.05l-6.58-.11Z" style="fill: rgb(235, 235, 235); transform-origin: 636.71px 293.22px;" id="elh0e5ugi2fp7" class="animable"></path><g id="el8tlgbrdrw4"><rect x="638.13" y="273.49" width="26.48" height="11.19" style="fill: rgb(235, 235, 235); transform-origin: 651.37px 279.085px; transform: rotate(180deg);" class="animable" id="eld6n7j5s3t8p"></rect></g><path d="M608.59,273.49l13.12-.28,6.66-.11c2.23-.05,4.47,0,6.7-.06h.44v.45l.06,11.19v.5h-.5l-13.24-.06c-4.42,0-8.83-.12-13.24-.17h-.28v-.27c0-1.9.09-3.79.14-5.65Zm0,0,.14,5.65c0,1.87.11,3.71.13,5.54l-.27-.27c4.41-.06,8.82-.16,13.24-.17l13.24-.06-.5.5,0-11.19.45.44c-2.18,0-4.36,0-6.55-.05l-6.58-.11Z" style="fill: rgb(235, 235, 235); transform-origin: 621.94px 279.11px;" id="eli81hpkvi8tm" class="animable"></path><path d="M653.62,71.37l13.13-.28,6.66-.11c2.22,0,4.46,0,6.69,0h.44v.45l.05,11.19v.5h-.5L666.86,83c-4.41,0-8.83-.12-13.24-.17h-.27v-.27c0-1.9.08-3.79.13-5.65Zm0,0,.14,5.65c0,1.87.12,3.71.13,5.54l-.27-.27c4.41-.05,8.83-.16,13.24-.17l13.24-.06-.5.5.06-11.19.44.45c-2.18,0-4.36,0-6.54-.06L667,71.65Z" style="fill: rgb(235, 235, 235); transform-origin: 666.97px 77.05px;" id="elil02cf7rzu8" class="animable"></path><path d="M247.14,208.46l13.12-.27,6.66-.12c2.23,0,4.47,0,6.7,0h.44v.44l.06,11.19v.51h-.5l-13.24-.06c-4.42,0-8.83-.11-13.24-.16h-.28v-.27c0-1.89.08-3.78.13-5.65Zm0,0,.14,5.66c.05,1.86.11,3.7.13,5.53l-.27-.27c4.41,0,8.82-.16,13.24-.16l13.24-.06-.5.49.05-11.19.45.45c-2.18,0-4.36,0-6.55,0l-6.58-.12Z" style="fill: rgb(235, 235, 235); transform-origin: 260.49px 214.14px;" id="elv9lxb17b2m" class="animable"></path><path d="M74.16,405.85l13.12-.28,6.67-.11c2.22,0,4.46,0,6.69,0h.44v.45l0,11.19v.5h-.5l-13.24-.06c-4.41,0-8.83-.11-13.24-.17h-.28V417c0-1.9.08-3.78.13-5.65Zm0,0,.14,5.66c0,1.86.11,3.7.13,5.53l-.27-.27c4.41,0,8.83-.16,13.24-.16l13.24-.07-.5.5,0-11.19.45.45c-2.18,0-4.36,0-6.55-.06l-6.57-.11Z" style="fill: rgb(235, 235, 235); transform-origin: 87.45px 411.53px;" id="el3vpkgx0g5yl" class="animable"></path><g id="elbuyw0ylae44"><rect x="59.39" y="391.74" width="26.48" height="11.19" style="fill: rgb(235, 235, 235); transform-origin: 72.63px 397.335px; transform: rotate(180deg);" class="animable" id="el6s0dg4pe1h2"></rect></g><g id="ell6uz2bqe5u"><rect x="665.66" y="405.84" width="26.48" height="11.19" style="fill: rgb(235, 235, 235); transform-origin: 678.9px 411.435px; transform: rotate(180deg);" class="animable" id="elcvzhsi469b"></rect></g><polygon points="550.2 410.67 655.54 432.83 666.98 359.19 561.63 337.04 550.2 410.67" style="fill: rgb(219, 219, 219); transform-origin: 608.59px 384.935px;" id="elplyjy2crvf" class="animable"></polygon><polygon points="630.94 343.74 668.16 351.57 666.98 359.19 627.62 350.92 630.94 343.74" style="fill: rgb(219, 219, 219); transform-origin: 647.89px 351.465px;" id="ely66ydgaxry" class="animable"></polygon><polygon points="550.28 410.69 655.62 432.85 678.16 366.01 572.82 343.86 550.28 410.69" style="fill: rgb(235, 235, 235); transform-origin: 614.22px 388.355px;" id="elem2eldzdajf" class="animable"></polygon><polygon points="643.27 351.26 680.5 359.09 678.16 366.01 638.8 357.74 643.27 351.26" style="fill: rgb(235, 235, 235); transform-origin: 659.65px 358.635px;" id="eli3v4nxpzbcl" class="animable"></polygon><polygon points="668.06 263.17 595.71 235.14 631.68 142.27 685.4 163.07 697.18 187.99 668.06 263.17" style="fill: rgb(255, 255, 255); transform-origin: 646.445px 202.72px;" id="els1yq4ah7ku" class="animable"></polygon><path d="M667.93,263.51l-1.87-.72.27-.7,1.87.73Zm.83-1.11-.7-.27.72-1.87.7.28Zm-4.56-.33-1.87-.72.27-.7,1.87.72Zm-3.73-1.45-1.87-.72.27-.7,1.87.73Zm-3.73-1.44-1.87-.72.27-.7,1.87.72Zm13.46-.51-.7-.27.73-1.87.7.28ZM653,257.74l-1.87-.73.27-.7,1.87.73Zm-3.73-1.45-1.87-.72.27-.7,1.87.72Zm22.37-1.35-.7-.27.72-1.87.7.28Zm-26.1-.09-1.87-.73.27-.69,1.87.72Zm-3.73-1.45-1.87-.72.27-.7,1.87.72ZM638.09,252l-1.87-.72.27-.7,1.87.72Zm35-.75-.7-.27.73-1.87.7.28Zm-38.73-.7-1.87-.72.27-.7,1.87.72Zm-3.73-1.44-1.87-.72.27-.7,1.87.72Zm-3.73-1.45L625,246.9l.27-.7,1.87.72Zm47.64-.14-.7-.27.72-1.87.7.28Zm-51.37-1.3-1.87-.72.27-.7,1.87.72Zm-3.73-1.45-1.87-.72.27-.7,1.87.73Zm56.54-1-.7-.27.73-1.87.7.28Zm-60.27-.46-1.87-.72.27-.7,1.87.72ZM612,241.85l-1.87-.73.27-.7,1.87.73Zm-3.73-1.45-1.87-.72.27-.7,1.87.72Zm69.18-.38-.7-.27.72-1.87.7.28ZM604.52,239l-1.87-.73.27-.7,1.87.73Zm-3.73-1.45-1.87-.72.27-.7,1.87.72Zm78.08-1.22-.7-.27.73-1.87.69.28Zm-81.81-.22-1.83-.71.28-.74.7.27v0l1.13.44Zm-.13-3-.7-.27.73-1.87.7.27Zm83.39-.47-.7-.27.72-1.87.7.28Zm-81.94-3.26-.7-.27.72-1.87.7.27Zm83.38-.47-.7-.27.72-1.87.7.28Zm-81.94-3.26-.7-.27.73-1.87.69.27Zm83.39-.47-.7-.27.72-1.87.7.27Zm-81.94-3.26-.7-.27.72-1.87.7.27Zm83.38-.47-.7-.27.72-1.87.7.27Zm-81.94-3.26-.7-.27.72-1.87.7.27Zm83.39-.47-.7-.27.72-1.87.7.27Zm-81.94-3.26-.7-.27.72-1.87.7.27Zm83.38-.47-.7-.27.72-1.87.7.27Zm-81.94-3.26-.7-.27.72-1.87.7.27Zm83.38-.47-.69-.27L689,208l.7.27Zm-81.93-3.26-.7-.27.72-1.87.7.27Zm83.38-.47-.7-.27.72-1.87.7.27Zm-81.94-3.26-.7-.27.72-1.87.7.27Zm83.38-.47-.7-.27.73-1.87.7.27Zm-81.94-3.26-.69-.27.72-1.87.7.27Zm83.39-.47-.7-.27.72-1.87.7.28Zm-81.94-3.26-.7-.27.72-1.87.7.27Zm83.38-.47-.7-.27.73-1.87.7.28ZM612.82,192l-.7-.27.73-1.87.7.27Zm83.39-.47-.7-.27.72-1.87.7.28Zm-81.94-3.26-.7-.27.72-1.87.7.27Zm82.42-.44-.85-1.8.67-.32.86,1.8Zm-81-3.29-.7-.27.73-1.87.7.27Zm79.27-.32-.85-1.81.67-.32.86,1.81Zm-77.82-3.41-.7-.27.72-1.87.7.27Zm76.11-.21-.85-1.81.67-.32.86,1.81Zm-74.67-3.52-.7-.27.73-1.87.7.27Zm73-.09-.85-1.81.68-.32.85,1.81Zm-1.71-3.62-.85-1.81.68-.32.85,1.81Zm-69.8,0-.7-.27.72-1.87.7.27Zm68.09-3.6-.85-1.81.68-.32.85,1.81Zm-66.65-.13-.7-.27.72-1.87.7.27Zm64.94-3.48-.85-1.81.68-.32.85,1.81Zm-63.49-.25-.7-.27.72-1.87.7.27Zm61.59-2.75-1.87-.72.27-.7,1.87.72Zm-60.15-1-.7-.27.72-1.87.7.27Zm56.42-.47-1.87-.72.28-.7,1.86.73Zm-3.73-1.44-1.87-.72.27-.7,1.87.72Zm-3.73-1.44-1.87-.73.28-.7,1.86.73Zm-47.51-.38-.7-.27.72-1.87.7.27Zm43.78-1.07-1.87-.72.27-.7,1.87.72Zm-3.73-1.44-1.87-.73.27-.7,1.87.73Zm-38.61-1.22-.7-.27.72-1.87.7.27Zm34.88-.23-1.87-.72.27-.7,1.87.72ZM658.42,153l-1.87-.73.27-.69,1.87.72Zm-3.73-1.45-1.87-.72.27-.7,1.87.72Zm-26-.61-.69-.27.72-1.87.7.27Zm22.25-.83-1.87-.72.27-.7,1.87.72Zm-3.73-1.45-1.87-.72.27-.7,1.87.72Zm-3.73-1.44-1.87-.72.27-.7,1.87.72Zm-13.34,0-.7-.27.72-1.87.7.27Zm9.61-1.44-1.87-.72.27-.7,1.87.72ZM636,144.36l-1.87-.72.27-.7,1.87.72Zm-4.44-.85-.69-.27.56-1.46,1.11.44-.27.69-.41-.15Z" style="fill: rgb(219, 219, 219); transform-origin: 646.3px 202.645px;" id="eltrsyehlm2k8" class="animable"></path><polygon points="685.4 163.07 697.18 187.99 678.55 180.77 685.4 163.07" style="fill: rgb(219, 219, 219); transform-origin: 687.865px 175.53px;" id="elcldeyum1pgb" class="animable"></polygon><polygon points="66.78 226.23 173.03 206.64 159.07 136.84 52.82 156.43 66.78 226.23" style="fill: rgb(235, 235, 235); transform-origin: 112.925px 181.535px;" id="elxfyfc6dvvlp" class="animable"></polygon><polygon points="70.33 221.07 167.76 203.1 155.53 142 58.1 159.97 70.33 221.07" style="fill: rgb(255, 255, 255); transform-origin: 112.93px 181.535px;" id="elx3x4c5nbrw" class="animable"></polygon><path d="M70.74,177.39a10.89,10.89,0,0,0,12.67,8.46,10.51,10.51,0,0,0,8.53-12.37A10.88,10.88,0,0,0,79.27,165,10.52,10.52,0,0,0,70.74,177.39Z" style="fill: rgb(219, 219, 219); transform-origin: 81.339px 175.425px;" id="elyvwj6t1ugno" class="animable"></path><polygon points="100.6 215.59 167.71 203.21 125.27 164.72 100.6 215.59" style="fill: rgb(235, 235, 235); transform-origin: 134.155px 190.155px;" id="el1e0nj7njsxi" class="animable"></polygon><polygon points="74.3 220.46 129.7 210.24 96.21 186.25 74.3 220.46" style="fill: rgb(219, 219, 219); transform-origin: 102px 203.355px;" id="elg9nb5qlzpb7" class="animable"></polygon><polygon points="87.6 290.56 169.33 300.33 174.95 246.4 93.22 236.62 87.6 290.56" style="fill: rgb(235, 235, 235); transform-origin: 131.275px 268.475px;" id="el8bwa0o0s9me" class="animable"></polygon><polygon points="91.34 287.61 166.29 296.57 171.21 249.35 96.26 240.39 91.34 287.61" style="fill: rgb(255, 255, 255); transform-origin: 131.275px 268.48px;" id="elknkzablonik" class="animable"></polygon><path d="M101.52,255.92a8.29,8.29,0,0,0,7.31,9,8,8,0,0,0,9-7.07,8.29,8.29,0,0,0-7.31-9A8,8,0,0,0,101.52,255.92Z" style="fill: rgb(219, 219, 219); transform-origin: 109.675px 256.885px;" id="el0mzwcmz0hc" class="animable"></path><polygon points="114.61 290.46 166.23 296.63 144.06 259.03 114.61 290.46" style="fill: rgb(235, 235, 235); transform-origin: 140.42px 277.83px;" id="elyp2hh40jvl" class="animable"></polygon><polygon points="94.37 288.06 136.99 293.15 118.05 268.13 94.37 288.06" style="fill: rgb(219, 219, 219); transform-origin: 115.68px 280.64px;" id="elfhz9xqa6839" class="animable"></polygon></g><g id="freepik--Floor--inject-61" class="animable" style="transform-origin: 375px 448.04px;"><polygon points="46.15 448.04 128.36 447.8 210.57 447.71 375 447.54 539.42 447.71 621.64 447.8 703.85 448.04 621.64 448.29 539.42 448.38 375 448.54 210.57 448.37 128.36 448.29 46.15 448.04" style="fill: rgb(38, 50, 56); transform-origin: 375px 448.04px;" id="eleerupe81fzq" class="animable"></polygon></g><g id="freepik--Device--inject-61" class="animable" style="transform-origin: 374.995px 250px;"><rect x="280.01" y="432.67" width="189.97" height="15.87" style="fill: rgb(199, 199, 199); transform-origin: 374.995px 440.605px;" id="el9jiplaqiwvr" class="animable"></rect><polygon points="447.36 432.68 302.63 432.68 306.31 405.13 306.49 403.83 306.83 401.24 307 399.94 307.36 397.36 307.4 396.96 307.52 396.06 307.88 393.47 308.05 392.18 310.62 372.93 439.38 372.93 441.81 391.08 441.93 391.96 442.33 394.97 442.44 395.84 442.59 396.96 442.85 398.85 442.96 399.73 443.36 402.75 443.48 403.61 447.36 432.68" style="fill: rgb(219, 219, 219); transform-origin: 374.995px 402.805px;" id="elmrj0txcrsxd" class="animable"></polygon><polygon points="442.59 396.96 308.05 392.18 310.62 372.93 439.38 372.93 442.59 396.96" style="fill: rgb(199, 199, 199); transform-origin: 375.32px 384.945px;" id="elti70vq7hkg" class="animable"></polygon><rect x="131.27" y="51.46" width="487.45" height="331.46" style="fill: rgb(38, 50, 56); transform-origin: 374.995px 217.19px;" id="el7ir0tg5hfup" class="animable"></rect><rect x="131.27" y="334.02" width="487.45" height="48.89" style="fill: rgb(219, 219, 219); transform-origin: 374.995px 358.465px;" id="el62tr0yx03vv" class="animable"></rect><path d="M382.93,355.18a8.08,8.08,0,1,1-8.07-8.07A8.07,8.07,0,0,1,382.93,355.18Z" style="fill: rgb(55, 71, 79); transform-origin: 374.85px 355.19px;" id="elsn03ta56tw" class="animable"></path><rect x="153.77" y="73.01" width="442.46" height="238.02" style="fill: rgb(255, 255, 255); transform-origin: 375px 192.02px;" id="elacdj8zdxyy" class="animable"></rect><rect x="153.77" y="73.01" width="442.46" height="238.02" style="fill: rgb(255, 255, 255); transform-origin: 375px 192.02px;" id="elch455og7jt4" class="animable"></rect><rect x="153.77" y="73.01" width="442.46" height="10.77" style="fill: rgb(69, 90, 100); transform-origin: 375px 78.395px;" id="ellav695yve8g" class="animable"></rect><path d="M161.68,78.4a1.82,1.82,0,1,1-1.82-1.83A1.83,1.83,0,0,1,161.68,78.4Z" style="fill: rgb(199, 199, 199); transform-origin: 159.86px 78.39px;" id="elqg346khrf4d" class="animable"></path><path d="M169.12,78.4a1.83,1.83,0,1,1-1.82-1.83A1.83,1.83,0,0,1,169.12,78.4Z" style="fill: rgb(255, 255, 255); transform-origin: 167.29px 78.4px;" id="el4e5kmbudgmw" class="animable"></path><path d="M176.55,78.4a1.82,1.82,0,1,1-1.82-1.83A1.82,1.82,0,0,1,176.55,78.4Z" style="fill: #90E1F9; transform-origin: 174.73px 78.39px;" id="elcr6dl54x5jj" class="animable"></path><rect x="379.58" y="94.52" width="195.05" height="93.61" style="fill: rgb(235, 235, 235); transform-origin: 477.105px 141.325px;" id="el4o836dzkkqy" class="animable"></rect><rect x="588.38" y="83.78" width="7.85" height="227.25" style="fill: rgb(219, 219, 219); transform-origin: 592.305px 197.405px;" id="el6jcsw5j0xhn" class="animable"></rect><path d="M592.3,177.09h0a2,2,0,0,1-2-2V87.38a2,2,0,0,1,2-2h0a2,2,0,0,1,2,2v87.68A2,2,0,0,1,592.3,177.09Z" style="fill: rgb(166, 166, 166); transform-origin: 592.3px 131.235px;" id="elcaq70lcance" class="animable"></path><rect x="153.77" y="83.78" width="104.76" height="227.25" style="fill: #90E1F9; transform-origin: 206.15px 197.405px;" id="elegq9e1bnzxv" class="animable"></rect><rect x="170.43" y="94.52" width="81.28" height="11.13" style="fill: rgb(255, 255, 255); transform-origin: 211.07px 100.085px;" id="elwa3mn3cn65l" class="animable"></rect><path d="M166.15,100.09a2.79,2.79,0,1,1-2.78-2.79A2.78,2.78,0,0,1,166.15,100.09Z" style="fill: rgb(255, 255, 255); transform-origin: 163.36px 100.09px;" id="el1xncbgo16v7" class="animable"></path><g id="eld4quyuhf3c"><rect x="170.43" y="113.59" width="81.28" height="11.13" style="opacity: 0.1; transform-origin: 211.07px 119.155px;" class="animable" id="elh2wm1g1vrdl"></rect></g><g id="elambcnufqeyf"><path d="M163.37,122.19a3,3,0,1,1,3-3A3,3,0,0,1,163.37,122.19Zm0-5.57a2.54,2.54,0,1,0,2.53,2.53A2.54,2.54,0,0,0,163.37,116.62Z" style="opacity: 0.1; transform-origin: 163.37px 119.19px;" class="animable" id="ely60opshek8"></path></g><g id="elcjg3jzxqyya"><path d="M165.05,119.15a1.69,1.69,0,1,1-1.68-1.68A1.69,1.69,0,0,1,165.05,119.15Z" style="opacity: 0.1; transform-origin: 163.36px 119.16px;" class="animable" id="elfhwjhekl5ub"></path></g><rect x="170.43" y="132.65" width="81.28" height="11.13" style="fill: rgb(255, 255, 255); transform-origin: 211.07px 138.215px;" id="el1js7k6gvc15" class="animable"></rect><path d="M166.15,138.22a2.79,2.79,0,1,1-2.78-2.79A2.79,2.79,0,0,1,166.15,138.22Z" style="fill: rgb(255, 255, 255); transform-origin: 163.36px 138.22px;" id="elpdo4x1pzuri" class="animable"></path><g id="eloso7uukn39s"><rect x="170.43" y="151.72" width="81.28" height="11.13" style="opacity: 0.1; transform-origin: 211.07px 157.285px;" class="animable" id="elpdluh61071"></rect></g><g id="elmib86ml6yff"><path d="M163.37,160.32a3,3,0,1,1,3-3A3,3,0,0,1,163.37,160.32Zm0-5.57a2.54,2.54,0,1,0,2.53,2.54A2.54,2.54,0,0,0,163.37,154.75Z" style="opacity: 0.1; transform-origin: 163.37px 157.32px;" class="animable" id="elcsny9njvbb7"></path></g><g id="ely6lhkqieznc"><path d="M165.05,157.29a1.69,1.69,0,1,1-1.68-1.69A1.69,1.69,0,0,1,165.05,157.29Z" style="opacity: 0.1; transform-origin: 163.36px 157.29px;" class="animable" id="elcpuhsf3wf3e"></path></g><rect x="170.43" y="170.78" width="81.28" height="11.13" style="fill: rgb(255, 255, 255); transform-origin: 211.07px 176.345px;" id="el3ys9rwon004" class="animable"></rect><path d="M166.15,176.35a2.79,2.79,0,1,1-2.78-2.78A2.79,2.79,0,0,1,166.15,176.35Z" style="fill: rgb(255, 255, 255); transform-origin: 163.36px 176.36px;" id="elak4z6ql5wgn" class="animable"></path><rect x="170.43" y="189.85" width="81.28" height="11.13" style="fill: rgb(255, 255, 255); transform-origin: 211.07px 195.415px;" id="elfmzrl5apidp" class="animable"></rect><path d="M166.15,195.42a2.79,2.79,0,1,1-2.78-2.79A2.78,2.78,0,0,1,166.15,195.42Z" style="fill: rgb(255, 255, 255); transform-origin: 163.36px 195.42px;" id="el956xvaumn6s" class="animable"></path><g id="el258bptkjpyd"><rect x="170.43" y="208.92" width="81.28" height="11.13" style="opacity: 0.1; transform-origin: 211.07px 214.485px;" class="animable" id="elm6rm3pylz8i"></rect></g><g id="ela7a6h0yojyh"><path d="M163.37,217.52a3,3,0,1,1,3-3A3,3,0,0,1,163.37,217.52Zm0-5.57a2.54,2.54,0,1,0,2.53,2.53A2.54,2.54,0,0,0,163.37,212Z" style="opacity: 0.1; transform-origin: 163.37px 214.52px;" class="animable" id="elacvtd61weje"></path></g><g id="el9t2lp48rxy"><path d="M165.05,214.48a1.69,1.69,0,1,1-1.68-1.68A1.68,1.68,0,0,1,165.05,214.48Z" style="opacity: 0.1; transform-origin: 163.36px 214.49px;" class="animable" id="elmvn68i4p89"></path></g><rect x="170.43" y="227.98" width="81.28" height="11.13" style="fill: rgb(255, 255, 255); transform-origin: 211.07px 233.545px;" id="elf0i8jzda5kd" class="animable"></rect><path d="M166.15,233.55a2.79,2.79,0,1,1-2.78-2.79A2.78,2.78,0,0,1,166.15,233.55Z" style="fill: rgb(255, 255, 255); transform-origin: 163.36px 233.55px;" id="elho6ksh672y" class="animable"></path><g id="elq5l52x8m9z"><rect x="170.43" y="247.05" width="81.28" height="11.13" style="opacity: 0.1; transform-origin: 211.07px 252.615px;" class="animable" id="el9eq6nrmt2rv"></rect></g><g id="elh85o1tvpez"><path d="M163.37,255.65a3,3,0,1,1,3-3A3,3,0,0,1,163.37,255.65Zm0-5.57a2.54,2.54,0,1,0,2.53,2.53A2.54,2.54,0,0,0,163.37,250.08Z" style="opacity: 0.1; transform-origin: 163.37px 252.65px;" class="animable" id="el6ko8b9v5yat"></path></g><g id="elulkyu2locwo"><path d="M165.05,252.61a1.69,1.69,0,1,1-1.68-1.68A1.69,1.69,0,0,1,165.05,252.61Z" style="opacity: 0.1; transform-origin: 163.36px 252.62px;" class="animable" id="elc2vdwqy59l"></path></g><g id="elfd4b9sp7qv"><rect x="170.43" y="266.11" width="81.28" height="11.13" style="opacity: 0.1; transform-origin: 211.07px 271.675px;" class="animable" id="elwkcszki7mig"></rect></g><g id="elebkuee58vhg"><path d="M163.37,274.71a3,3,0,1,1,3-3A3,3,0,0,1,163.37,274.71Zm0-5.57a2.54,2.54,0,1,0,2.53,2.54A2.54,2.54,0,0,0,163.37,269.14Z" style="opacity: 0.1; transform-origin: 163.37px 271.71px;" class="animable" id="elai0sk5q64x"></path></g><g id="elx9xy8ug7jn"><path d="M165.05,271.68a1.69,1.69,0,1,1-1.68-1.68A1.68,1.68,0,0,1,165.05,271.68Z" style="opacity: 0.1; transform-origin: 163.36px 271.69px;" class="animable" id="elagfu17il7sk"></path></g><path d="M366.53,188.63H362v-1h3.5v-.4h1Zm-8.5,0h-4v-1h4Zm-8,0h-4v-1h4Zm-8,0h-4v-1h4Zm-8,0h-4v-1h4Zm-8,0h-4v-1h4Zm-8,0h-4v-1h4Zm-8,0h-4v-1h4Zm-8,0h-4v-1h4Zm-8,0h-4v-1h4Zm-8,0h-4v-1h4Zm-8,0h-4v-1h4ZM271.69,187h-1v-4h1Zm94.84-3.74h-1v-4h1ZM271.69,179h-1v-4h1Zm94.84-3.74h-1v-4h1ZM271.69,171h-1v-4h1Zm94.84-3.74h-1v-4h1ZM271.69,163h-1v-4h1Zm94.84-3.74h-1v-4h1ZM271.69,155h-1v-4h1Zm94.84-3.74h-1v-4h1ZM271.69,147h-1v-4h1Zm94.84-3.74h-1v-4h1ZM271.69,139h-1v-4h1Zm94.84-3.74h-1v-4h1ZM271.69,131h-1v-4h1Zm94.84-3.74h-1v-4h1ZM271.69,123h-1v-4h1Zm94.84-3.74h-1v-4h1ZM271.69,115h-1v-4h1Zm94.84-3.74h-1v-4h1ZM271.69,107h-1v-4h1Zm94.84-3.74h-1v-4h1ZM271.69,99h-1V95h1Zm94.84-3.74h-1V95h-2.79V94h3.79ZM358.74,95h-4V94h4Zm-8,0h-4V94h4Zm-8,0h-4V94h4Zm-8,0h-4V94h4Zm-8,0h-4V94h4Zm-8,0h-4V94h4Zm-8,0h-4V94h4Zm-8,0h-4V94h4Zm-8,0h-4V94h4Zm-8,0h-4V94h4Zm-8,0h-4V94h4Z" style="fill: rgb(235, 235, 235); transform-origin: 318.61px 141.315px;" id="el6ndqn2k1ro" class="animable"></path><polygon points="480.29 205.1 479.29 205.1 479.29 202.6 481.79 202.6 481.79 203.6 480.29 203.6 480.29 205.1" style="fill: rgb(235, 235, 235); transform-origin: 480.54px 203.85px;" id="elg4ykqt990zs" class="animable"></polygon><path d="M568.69,203.6h-4v-1h4Zm-7.9,0h-3.95v-1h3.95Zm-7.9,0h-3.95v-1h3.95Zm-7.9,0h-4v-1h4Zm-7.9,0h-4v-1h4Zm-7.9,0h-4v-1h4Zm-7.9,0h-3.95v-1h3.95Zm-7.9,0h-3.95v-1h3.95Zm-7.9,0h-3.95v-1h3.95Zm-7.9,0h-3.95v-1h3.95Zm-7.9,0h-3.95v-1h3.95Z" style="fill: rgb(235, 235, 235); transform-origin: 527.215px 203.1px;" id="el2eenypapsgd" class="animable"></path><polygon points="575.14 205.1 574.14 205.1 574.14 203.6 572.64 203.6 572.64 202.6 575.14 202.6 575.14 205.1" style="fill: rgb(235, 235, 235); transform-origin: 573.89px 203.85px;" id="elpifh29ahtpp" class="animable"></polygon><path d="M575.14,290.81h-1v-3.89h1Zm0-7.79h-1v-3.9h1Zm0-7.79h-1v-3.9h1Zm0-7.8h-1v-3.89h1Zm0-7.79h-1v-3.89h1Zm0-7.79h-1V248h1Zm0-7.79h-1v-3.9h1Zm0-7.79h-1v-3.9h1Zm0-7.79h-1v-3.9h1Zm0-7.8h-1v-3.89h1Zm0-7.79h-1V209h1Z" style="fill: rgb(235, 235, 235); transform-origin: 574.64px 249.905px;" id="el9xl22hrsrra" class="animable"></path><polygon points="575.14 297.21 572.64 297.21 572.64 296.21 574.14 296.21 574.14 294.71 575.14 294.71 575.14 297.21" style="fill: rgb(235, 235, 235); transform-origin: 573.89px 295.96px;" id="el757e4589z8" class="animable"></polygon><path d="M568.69,297.21h-4v-1h4Zm-7.9,0h-3.95v-1h3.95Zm-7.9,0h-3.95v-1h3.95Zm-7.9,0h-4v-1h4Zm-7.9,0h-4v-1h4Zm-7.9,0h-4v-1h4Zm-7.9,0h-3.95v-1h3.95Zm-7.9,0h-3.95v-1h3.95Zm-7.9,0h-3.95v-1h3.95Zm-7.9,0h-3.95v-1h3.95Zm-7.9,0h-3.95v-1h3.95Z" style="fill: rgb(235, 235, 235); transform-origin: 527.215px 296.71px;" id="elt7jf7mnou4p" class="animable"></path><polygon points="481.79 297.21 479.29 297.21 479.29 294.71 480.29 294.71 480.29 296.21 481.79 296.21 481.79 297.21" style="fill: rgb(235, 235, 235); transform-origin: 480.54px 295.96px;" id="elcb8rfns096m" class="animable"></polygon><path d="M480.29,290.81h-1v-3.89h1Zm0-7.79h-1v-3.9h1Zm0-7.79h-1v-3.9h1Zm0-7.8h-1v-3.89h1Zm0-7.79h-1v-3.89h1Zm0-7.79h-1V248h1Zm0-7.79h-1v-3.9h1Zm0-7.79h-1v-3.9h1Zm0-7.79h-1v-3.9h1Zm0-7.8h-1v-3.89h1Zm0-7.79h-1V209h1Z" style="fill: rgb(235, 235, 235); transform-origin: 479.79px 249.905px;" id="elwbvws88ut3" class="animable"></path><g id="elz4brrfeituf"><rect x="271.19" y="203.1" width="195.05" height="93.61" style="fill: rgb(235, 235, 235); transform-origin: 368.715px 249.905px; transform: rotate(180deg);" class="animable" id="eltoqmkm55us"></rect></g><polygon points="326.76 288.28 266.98 288.26 267.02 211.52 311.4 211.54 326.79 226.17 326.76 288.28" style="fill: #90E1F9; transform-origin: 296.885px 249.9px;" id="el9v6ygsvtvr9" class="animable"></polygon><polygon points="311.4 211.54 326.79 226.17 311.39 226.16 311.4 211.54" style="fill: #90E1F9; transform-origin: 319.09px 218.855px;" id="el3ms63jh0d5v" class="animable"></polygon><g id="el7cuaerpap3v"><polygon points="311.4 211.54 326.79 226.17 311.39 226.16 311.4 211.54" style="opacity: 0.1; transform-origin: 319.09px 218.855px;" class="animable" id="elv02bu5f69p"></polygon></g><g id="elp1rngqcagqa"><g style="opacity: 0.1; transform-origin: 297.175px 252.751px;" class="animable" id="elwwhgrxd8pk"><g id="elfdjkwxaaw9f"><rect x="272.84" y="224.41" width="33.23" height="1.97" class="animable" style="transform-origin: 289.455px 225.395px; transform: rotate(-179.98deg);" id="els2mhnbvyldo"></rect></g><g id="el86yw56m138w"><rect x="272.84" y="229.38" width="33.23" height="1.97" class="animable" style="transform-origin: 289.455px 230.365px; transform: rotate(-179.98deg);" id="el3tvdz0ypzd"></rect></g><g id="elr2acgmjbjwn"><rect x="272.84" y="234.35" width="33.23" height="1.97" class="animable" style="transform-origin: 289.455px 235.335px; transform: rotate(-179.98deg);" id="elcfbccuis96f"></rect></g><g id="el4rhju8nxq8l"><rect x="272.84" y="239.33" width="48.69" height="1.97" class="animable" style="transform-origin: 297.185px 240.315px; transform: rotate(-179.98deg);" id="eltlxu88h37y9"></rect></g><g id="elg3v7q162f0i"><rect x="272.83" y="244.3" width="48.69" height="1.97" class="animable" style="transform-origin: 297.175px 245.285px; transform: rotate(-179.98deg);" id="elpgkbm99vvt"></rect></g><g id="el6gb1guvvmpn"><rect x="272.83" y="249.28" width="48.69" height="1.97" class="animable" style="transform-origin: 297.175px 250.265px; transform: rotate(-179.98deg);" id="elnd988mjnel"></rect></g><g id="elj70ffty2cqh"><rect x="272.83" y="254.25" width="48.69" height="1.97" class="animable" style="transform-origin: 297.175px 255.235px; transform: rotate(-179.98deg);" id="elltufeckwn3"></rect></g><g id="elrce36zesi38"><rect x="272.83" y="259.22" width="48.69" height="1.97" class="animable" style="transform-origin: 297.175px 260.205px; transform: rotate(-179.98deg);" id="elgf63l4ifx3a"></rect></g><g id="elech76n9hguo"><rect x="272.82" y="264.2" width="48.69" height="1.97" class="animable" style="transform-origin: 297.165px 265.185px; transform: rotate(-179.98deg);" id="el2nz4os1443m"></rect></g><g id="eltmscuhakcie"><rect x="272.82" y="269.17" width="48.69" height="1.97" class="animable" style="transform-origin: 297.165px 270.155px; transform: rotate(-179.98deg);" id="elxdbxbuejz"></rect></g><g id="elhxstxzpfg6r"><rect x="272.82" y="274.14" width="48.69" height="1.97" class="animable" style="transform-origin: 297.165px 275.125px; transform: rotate(-179.98deg);" id="elqwa2m28awm"></rect></g><g id="elh6cwn1prhzd"><rect x="272.82" y="279.12" width="48.69" height="1.97" class="animable" style="transform-origin: 297.165px 280.105px; transform: rotate(-179.98deg);" id="ellsncp7j1c5"></rect></g></g></g><polygon points="470.43 288.28 410.65 288.26 410.68 211.52 455.07 211.54 470.45 226.17 470.43 288.28" style="fill: #90E1F9; transform-origin: 440.55px 249.9px;" id="el20kuasruxre" class="animable"></polygon><polygon points="455.07 211.54 470.45 226.17 455.06 226.16 455.07 211.54" style="fill: #90E1F9; transform-origin: 462.755px 218.855px;" id="el7ss8a66symd" class="animable"></polygon><g id="elx4sr41mn00o"><polygon points="455.07 211.54 470.45 226.17 455.06 226.16 455.07 211.54" style="opacity: 0.1; transform-origin: 462.755px 218.855px;" class="animable" id="el292wk5mwciq"></polygon></g><g id="el9u4omiweaw"><g style="opacity: 0.1; transform-origin: 440.84px 252.751px;" class="animable" id="eloat0cwgmj5j"><g id="elrockcx2m14"><rect x="416.51" y="224.41" width="33.23" height="1.97" class="animable" style="transform-origin: 433.125px 225.395px; transform: rotate(-179.98deg);" id="elq9swif4g83k"></rect></g><g id="elk864zyxyv8b"><rect x="416.51" y="229.38" width="33.23" height="1.97" class="animable" style="transform-origin: 433.125px 230.365px; transform: rotate(-179.98deg);" id="eljkrv3zsrk2"></rect></g><g id="elhnyw9944pm5"><rect x="416.5" y="234.35" width="33.23" height="1.97" class="animable" style="transform-origin: 433.115px 235.335px; transform: rotate(-179.98deg);" id="el05vyfzue9a9k"></rect></g><g id="el9uiljq2568n"><rect x="416.5" y="239.33" width="48.69" height="1.97" class="animable" style="transform-origin: 440.845px 240.315px; transform: rotate(-179.98deg);" id="eleq5sbt78ee"></rect></g><g id="elvqn9eprpgyo"><rect x="416.5" y="244.3" width="48.69" height="1.97" class="animable" style="transform-origin: 440.845px 245.285px; transform: rotate(-179.98deg);" id="eltrr0cpsbeu"></rect></g><g id="elbvmy2vy0ulc"><rect x="416.5" y="249.28" width="48.69" height="1.97" class="animable" style="transform-origin: 440.845px 250.265px; transform: rotate(-179.98deg);" id="el277rj6pv0xm"></rect></g><g id="elnmhztay96xo"><rect x="416.5" y="254.25" width="48.69" height="1.97" class="animable" style="transform-origin: 440.845px 255.235px; transform: rotate(-179.98deg);" id="elgaw4excli5u"></rect></g><g id="el3di26po1wwl"><rect x="416.49" y="259.22" width="48.69" height="1.97" class="animable" style="transform-origin: 440.835px 260.205px; transform: rotate(-179.98deg);" id="elpbdqy6ajhbe"></rect></g><g id="el1sdyno9sr86"><rect x="416.49" y="264.2" width="48.69" height="1.97" class="animable" style="transform-origin: 440.835px 265.185px; transform: rotate(-179.98deg);" id="eldiaryvhsilm"></rect></g><g id="elcd1zswd7rni"><rect x="416.49" y="269.17" width="48.69" height="1.97" class="animable" style="transform-origin: 440.835px 270.155px; transform: rotate(-179.98deg);" id="el36jmdw1gaer"></rect></g><g id="elvlarrp4tog"><rect x="416.49" y="274.14" width="48.69" height="1.97" class="animable" style="transform-origin: 440.835px 275.125px; transform: rotate(-179.98deg);" id="elzucgfwpera"></rect></g><g id="elnwyjpmwst0h"><rect x="416.49" y="279.12" width="48.69" height="1.97" class="animable" style="transform-origin: 440.835px 280.105px; transform: rotate(-179.98deg);" id="elc9peswzmdhe"></rect></g></g></g><polygon points="398.59 288.28 338.82 288.26 338.85 211.52 383.23 211.54 398.62 226.17 398.59 288.28" style="fill: rgb(69, 90, 100); transform-origin: 368.72px 249.9px;" id="elp7o8keyxdx" class="animable"></polygon><polygon points="383.23 211.54 398.62 226.17 383.23 226.16 383.23 211.54" style="fill: rgb(55, 71, 79); transform-origin: 390.925px 218.855px;" id="eldnh5arc416m" class="animable"></polygon><g id="elmvdj8nepmk"><rect x="344.68" y="224.41" width="33.23" height="1.97" style="fill: rgb(55, 71, 79); transform-origin: 361.295px 225.395px; transform: rotate(-179.98deg);" class="animable" id="el861t4xksaxe"></rect></g><g id="elzkx4emgtldg"><rect x="344.67" y="229.38" width="33.23" height="1.97" style="fill: rgb(55, 71, 79); transform-origin: 361.285px 230.365px; transform: rotate(-179.98deg);" class="animable" id="ellivz2eo8x2"></rect></g><g id="el6crtoylrsf8"><rect x="344.67" y="234.35" width="33.23" height="1.97" style="fill: rgb(55, 71, 79); transform-origin: 361.285px 235.335px; transform: rotate(-179.98deg);" class="animable" id="elaf869fr54g"></rect></g><g id="elnlq9kfl3bl"><rect x="344.67" y="239.33" width="48.69" height="1.97" style="fill: rgb(55, 71, 79); transform-origin: 369.015px 240.315px; transform: rotate(-179.98deg);" class="animable" id="el6io3tk7sxkg"></rect></g><g id="eljn5vhc0nqj"><rect x="344.67" y="244.3" width="48.69" height="1.97" style="fill: rgb(55, 71, 79); transform-origin: 369.015px 245.285px; transform: rotate(-179.98deg);" class="animable" id="elrjysx0ffycm"></rect></g><g id="elgk0e2qpa14"><rect x="344.66" y="249.28" width="48.69" height="1.97" style="fill: rgb(55, 71, 79); transform-origin: 369.005px 250.265px; transform: rotate(-179.98deg);" class="animable" id="eljw0n3kjk8tb"></rect></g><g id="el64tqr65suep"><rect x="344.66" y="254.25" width="48.69" height="1.97" style="fill: rgb(55, 71, 79); transform-origin: 369.005px 255.235px; transform: rotate(-179.98deg);" class="animable" id="elsn2tgks51fr"></rect></g><g id="el2zgzcpoxdet"><rect x="344.66" y="259.22" width="48.69" height="1.97" style="fill: rgb(55, 71, 79); transform-origin: 369.005px 260.205px; transform: rotate(-179.98deg);" class="animable" id="elo1ypznwtbse"></rect></g><g id="elvmdtzd654mb"><rect x="344.66" y="264.2" width="48.69" height="1.97" style="fill: rgb(55, 71, 79); transform-origin: 369.005px 265.185px; transform: rotate(-179.98deg);" class="animable" id="elazwcqdoyhdc"></rect></g><g id="elpewfl5oqym"><rect x="344.66" y="269.17" width="48.69" height="1.97" style="fill: rgb(55, 71, 79); transform-origin: 369.005px 270.155px; transform: rotate(-179.98deg);" class="animable" id="elidyca0dybks"></rect></g><g id="elafgz9el6yuv"><rect x="344.65" y="274.14" width="48.69" height="1.97" style="fill: rgb(55, 71, 79); transform-origin: 368.995px 275.125px; transform: rotate(-179.98deg);" class="animable" id="elp3tdtz4edgc"></rect></g><g id="elix0r5tapp2"><rect x="344.65" y="279.12" width="48.69" height="1.97" style="fill: rgb(55, 71, 79); transform-origin: 368.995px 280.105px; transform: rotate(-179.98deg);" class="animable" id="elu9lb2ge2mr"></rect></g><rect x="283.82" y="118.54" width="70.14" height="50.84" style="fill: #90E1F9; transform-origin: 318.89px 143.96px;" id="el241iazw2ajz" class="animable"></rect><polygon points="308.61 113.27 283.82 113.27 283.82 118.54 310.03 118.54 308.61 113.27" style="fill: #90E1F9; transform-origin: 296.925px 115.905px;" id="eln2f2vrnc0bi" class="animable"></polygon><rect x="286.26" y="115.33" width="20.27" height="3.06" style="fill: rgb(255, 255, 255); transform-origin: 296.395px 116.86px;" id="el6n66wohi16q" class="animable"></rect><polygon points="353.96 169.38 283.82 169.38 283.31 121.69 353.45 121.69 353.96 169.38" style="fill: #90E1F9; transform-origin: 318.635px 145.535px;" id="el1vuphjx4ith" class="animable"></polygon><g id="elhes4njqd6bl"><polygon points="353.96 169.38 283.82 169.38 283.31 121.69 353.45 121.69 353.96 169.38" style="fill: rgb(255, 255, 255); opacity: 0.4; transform-origin: 318.635px 145.535px;" class="animable" id="elakwg7l5bkci"></polygon></g><polygon points="308.04 116.86 283.26 116.86 283.31 121.69 309.52 121.69 308.04 116.86" style="fill: #90E1F9; transform-origin: 296.39px 119.275px;" id="elraafs5rx0ts" class="animable"></polygon><g id="ele673cbelsni"><polygon points="308.04 116.86 283.26 116.86 283.31 121.69 309.52 121.69 308.04 116.86" style="fill: rgb(255, 255, 255); opacity: 0.4; transform-origin: 296.39px 119.275px;" class="animable" id="el2kjveals5vv"></polygon></g><rect x="512.61" y="217.64" width="70.14" height="50.84" style="fill: #90E1F9; transform-origin: 547.68px 243.06px;" id="el62ko08sp86" class="animable"></rect><polygon points="537.39 212.37 512.61 212.37 512.61 217.63 538.82 217.63 537.39 212.37" style="fill: #90E1F9; transform-origin: 525.715px 215px;" id="ele3np3c0bbet" class="animable"></polygon><rect x="515.05" y="214.43" width="20.27" height="3.06" style="fill: rgb(255, 255, 255); transform-origin: 525.185px 215.96px;" id="elj67mghb98ss" class="animable"></rect><polygon points="582.75 268.48 512.61 268.48 512.1 220.79 582.24 220.79 582.75 268.48" style="fill: #90E1F9; transform-origin: 547.425px 244.635px;" id="eln6wzvm8tiop" class="animable"></polygon><g id="el7qqxvjc8xu6"><polygon points="582.75 268.48 512.61 268.48 512.1 220.79 582.24 220.79 582.75 268.48" style="fill: rgb(255, 255, 255); opacity: 0.4; transform-origin: 547.425px 244.635px;" class="animable" id="elaxeq2n19zij"></polygon></g><polygon points="536.83 215.96 512.05 215.96 512.1 220.79 538.31 220.79 536.83 215.96" style="fill: #90E1F9; transform-origin: 525.18px 218.375px;" id="elj6k88h6aok" class="animable"></polygon><g id="el3q92yx3q463"><polygon points="536.83 215.96 512.05 215.96 512.1 220.79 538.31 220.79 536.83 215.96" style="fill: rgb(255, 255, 255); opacity: 0.4; transform-origin: 525.18px 218.375px;" class="animable" id="eleh027h0ovs"></polygon></g><g id="elgzlckdalwua"><rect x="405.65" y="106.97" width="62.7" height="62.7" style="fill: rgb(255, 255, 255); transform-origin: 437px 138.32px; transform: rotate(180deg);" class="animable" id="elirzugijkjm"></rect></g><g id="el8ch530zinxk"><rect x="408.72" y="110.04" width="56.56" height="56.56" style="fill: rgb(69, 90, 100); transform-origin: 437px 138.32px; transform: rotate(180deg);" class="animable" id="elh8s9qmq7y6l"></rect></g><path d="M417.83,123.54a5.34,5.34,0,1,0,4.19-4.19A5.34,5.34,0,0,0,417.83,123.54Z" style="fill: rgb(55, 71, 79); transform-origin: 423.066px 124.586px;" id="el0blwf3yaiy9" class="animable"></path><polygon points="424.4 151.93 465.28 151.93 444.84 129 424.4 151.93" style="fill: rgb(55, 71, 79); transform-origin: 444.84px 140.465px;" id="elvpewt1dhwvn" class="animable"></polygon><polygon points="408.71 151.93 442.46 151.93 425.59 137 408.71 151.93" style="fill: rgb(38, 50, 56); transform-origin: 425.585px 144.465px;" id="el8a3m416pdnr" class="animable"></polygon><rect x="408.72" y="151.93" width="56.56" height="14.68" style="fill: rgb(38, 50, 56); transform-origin: 437px 159.27px;" id="el4pej0nbxwcr" class="animable"></rect><g id="elsf6qzhqbg2i"><rect x="493.96" y="106.97" width="62.7" height="62.7" style="fill: rgb(255, 255, 255); transform-origin: 525.31px 138.32px; transform: rotate(180deg);" class="animable" id="elrnd4bkt2gd"></rect></g><g id="el8wgbdq710gf"><rect x="497.03" y="110.04" width="56.56" height="56.56" style="fill: rgb(69, 90, 100); transform-origin: 525.31px 138.32px; transform: rotate(180deg);" class="animable" id="eltzggb4qrqz"></rect></g><path d="M506.14,123.54a5.34,5.34,0,1,0,4.19-4.19A5.34,5.34,0,0,0,506.14,123.54Z" style="fill: rgb(55, 71, 79); transform-origin: 511.376px 124.586px;" id="elaws835xj04r" class="animable"></path><polygon points="512.72 151.93 553.6 151.93 533.15 129 512.72 151.93" style="fill: rgb(55, 71, 79); transform-origin: 533.16px 140.465px;" id="elqmkb4eszt3b" class="animable"></polygon><polygon points="497.03 151.93 530.78 151.93 513.91 137 497.03 151.93" style="fill: rgb(38, 50, 56); transform-origin: 513.905px 144.465px;" id="elq4p03hq9yn" class="animable"></polygon><rect x="497.03" y="151.93" width="56.56" height="14.68" style="fill: rgb(38, 50, 56); transform-origin: 525.31px 159.27px;" id="elgtk0ncbdjsp" class="animable"></rect><g id="elfwh85o8kqfq"><rect x="393.64" y="116.95" width="62.7" height="62.7" style="fill: rgb(255, 255, 255); transform-origin: 424.99px 148.3px; transform: rotate(180deg);" class="animable" id="elttsz5ym85e"></rect></g><g id="el81qo677gio5"><rect x="396.71" y="120.02" width="56.56" height="56.56" style="fill: #90E1F9; transform-origin: 424.99px 148.3px; transform: rotate(180deg);" class="animable" id="elnixv4kxd7qr"></rect></g><g id="elzg04b735t9n"><path d="M405.82,133.52a5.34,5.34,0,1,0,4.19-4.19A5.35,5.35,0,0,0,405.82,133.52Z" style="opacity: 0.1; transform-origin: 411.056px 134.566px;" class="animable" id="elgtufdv04rtb"></path></g><g id="elz7acvofg08d"><polygon points="412.39 161.9 453.27 161.9 432.83 138.98 412.39 161.9" style="opacity: 0.1; transform-origin: 432.83px 150.44px;" class="animable" id="elrvlf78u61zf"></polygon></g><polygon points="396.71 161.9 430.46 161.9 413.58 146.98 396.71 161.9" style="fill: #90E1F9; transform-origin: 413.585px 154.44px;" id="el2j6a36abqpb" class="animable"></polygon><g id="el362kjgiwexr"><g style="opacity: 0.2; transform-origin: 413.585px 154.44px;" class="animable" id="elh8ulo831ic"><polygon points="396.71 161.9 430.46 161.9 413.58 146.98 396.71 161.9" id="el8l08xg2z8jc" class="animable" style="transform-origin: 413.585px 154.44px;"></polygon></g></g><rect x="396.71" y="161.9" width="56.56" height="14.68" style="fill: #90E1F9; transform-origin: 424.99px 169.24px;" id="elcxiaj8g7yv" class="animable"></rect><g id="elgo6qq1usbfn"><rect x="396.71" y="161.9" width="56.56" height="14.68" style="opacity: 0.2; transform-origin: 424.99px 169.24px;" class="animable" id="elgp2nd42l6u9"></rect></g></g><g id="freepik--Plant--inject-61" class="animable" style="transform-origin: 97.5052px 377.971px;"><path d="M96.06,333.17a45.6,45.6,0,0,1-.89,17.53,49,49,0,0,1-2.68,7.75c-1.4,3.2-2.86,6.33-2.5,9.84.33.23-.83.19-.87-.15-9.37-5.34-21.4-6.32-28.61-15-3.42-4.14-5.14-9.38-6-14.62-.89-5.7-1.14-12,.34-17.64,1.24-4.76,4-9.35,8.49-11.68S74,307,78.89,308.47C89.37,311.73,94.58,323,96.06,333.17Z" style="fill: #90E1F9; transform-origin: 75.158px 337.918px;" id="elnw1zvcxms5" class="animable"></path><path d="M100.87,402.58c-1.28-4.26-2.56-8.53-3.87-12.78-2.57-8.34-5.25-16.64-8.21-24.85q-2.66-7.36-5.61-14.6a90,90,0,0,1,1.12-9.06c.78-3.64,1.92-7.15,3-10.71.07-.21-.29-.33-.38-.12-2.1,4.9-4.85,11.17-4.92,17-2.29-5.46-4.73-10.84-7.37-16.13A68.74,68.74,0,0,1,75,317.87a.16.16,0,0,0-.32-.06,47.93,47.93,0,0,0-.92,11.86q-3-6-6.4-11.78c-.2-.35-.68,0-.5.35C70.41,325,73.68,332,76.75,339A45,45,0,0,0,62,330.46c-.23-.09-.4.25-.17.35a53.48,53.48,0,0,1,15.9,10.53q3.32,7.71,6.31,15.54c-5.87-5.75-13.9-9.54-21.67-11.56-.26-.07-.33.33-.08.41,9,2.7,16,7.8,22.81,13.92q1.19,3.17,2.34,6.35,4.33,12,8.27,24.25,1.89,5.83,3.72,11.7c1.31,4.21,2.34,8.65,4,12.71.17.38.86.29.77-.17A118.7,118.7,0,0,0,100.87,402.58Z" style="fill: rgb(38, 50, 56); transform-origin: 82.9644px 366.288px;" id="elb4ybzxnylp" class="animable"></path><path d="M85.32,325a23.46,23.46,0,0,0-3.38,8.42c0,.08.11.12.14.05a70.78,70.78,0,0,1,3.66-8.26C85.88,324.89,85.48,324.72,85.32,325Z" style="fill: rgb(38, 50, 56); transform-origin: 83.8546px 329.182px;" id="elpplrz7jbwdd" class="animable"></path><path d="M68.59,344.5a24.68,24.68,0,0,0-8.41-2.83c-.08,0-.13.1,0,.13,1.35.56,2.78.95,4.15,1.48s2.71,1.17,4.1,1.65A.24.24,0,0,0,68.59,344.5Z" style="fill: rgb(38, 50, 56); transform-origin: 64.392px 343.3px;" id="el4iuveudb49b" class="animable"></path><path d="M63.88,321a15.81,15.81,0,0,0-2.71-1.67.14.14,0,0,0-.15.23,16.23,16.23,0,0,0,2.66,1.74C63.86,321.4,64.05,321.11,63.88,321Z" style="fill: rgb(38, 50, 56); transform-origin: 62.4621px 320.32px;" id="elq6ifbxe3c19" class="animable"></path><path d="M127.67,365c-6.76,2-13.54,3.85-20.29,5.84-.59.17-12-21.7-7.88-33,3.81-10.43,12.54-18.24,23-21.78,4.82-1.64,10.75-3,15.85-1.89,4.52,1,7.72,4.71,9.2,9,2,5.78,1.33,12.69.24,18.6A32.57,32.57,0,0,1,141.1,357C137.51,361.24,132.93,363.46,127.67,365Z" style="fill: #90E1F9; transform-origin: 123.72px 342.304px;" id="elux9xcwbkv6b" class="animable"></path><path d="M137.46,344.23a90.77,90.77,0,0,1-13.24,5.21,54.74,54.74,0,0,0-8.84,3.2c2.85-6.36,6-12.58,9.3-18.75,4.36-1.27,8.95-3.23,12.24-6.32a.19.19,0,0,0-.24-.29c-3.6,2.55-7.57,4.07-11.55,5.79.9-1.66,1.8-3.32,2.73-5,.26-.46-.38-.92-.69-.47a142.07,142.07,0,0,0-9.59,16.12,73.6,73.6,0,0,1-.7-14.77.1.1,0,1,0-.19,0,49.06,49.06,0,0,0,.16,16.22c-2.37,4.73-4.52,9.57-6.46,14.47-.77-2.94-1.77-5.84-2.44-8.81a40.64,40.64,0,0,1-1-13,.1.1,0,0,0-.2,0,45.84,45.84,0,0,0,2.84,23.87c-1.13,2.95-2.21,5.91-3.2,8.88a177,177,0,0,0-9,46.85.29.29,0,0,0,.57.05,232.77,232.77,0,0,1,10.07-46.31c2-5.89,4.21-11.6,6.68-17.21,4-1.18,8-2.78,11.88-4.14s7.74-2.85,11-5.36A.14.14,0,0,0,137.46,344.23Z" style="fill: rgb(38, 50, 56); transform-origin: 117.507px 372.475px;" id="ele8ivkplb20m" class="animable"></path><path d="M143.76,337.87c-4.13,1.47-8,3.53-12.18,5-.19.07-.08.37.12.33,4.36-.9,8.69-2.25,12.21-5.11C144.05,338,143.9,337.82,143.76,337.87Z" style="fill: rgb(38, 50, 56); transform-origin: 137.724px 340.533px;" id="elsspbv97c44" class="animable"></path><path d="M110,329c0-.22-.27-.34-.34-.12-1.13,3.81-1.91,7.85-.81,11.74.05.15.28.16.29,0C109.37,336.64,109.15,332.83,110,329Z" style="fill: rgb(38, 50, 56); transform-origin: 109.16px 334.75px;" id="elj9fcmkf2a9s" class="animable"></path><path d="M127.1,320.17a10,10,0,0,0-1.8,6.47c0,.15.24.23.28.06.51-2.18,1.35-4.16,2-6.28A.28.28,0,0,0,127.1,320.17Z" style="fill: rgb(38, 50, 56); transform-origin: 126.431px 323.437px;" id="el8l0ds8gxlht" class="animable"></path><path d="M47.34,374.67c2,6.28,6.69,15,14.14,15,4.83.05,9.69-.52,14.53-.59,5.18-.08,10.38-.07,15.55.24.43,0-.62-15.53-13.08-23.1-3.49-2.12-7.76-2.79-11.72-3.65a54.68,54.68,0,0,0-13.84-1.44c-2.87.12-5.25.72-6.26,3.65S46.39,371.68,47.34,374.67Z" style="fill: #90E1F9; transform-origin: 68.9056px 375.394px;" id="el1q91qml35vs" class="animable"></path><path d="M52.7,366.8c3,.78,6.09,1.68,9.12,2.64A30.57,30.57,0,0,0,59.31,367c-1.3-1.08-2.74-1.95-4.14-2.9-.11-.08,0-.3.11-.25a17.12,17.12,0,0,1,7.34,5.85c3.79,1.22,7.54,2.57,11.15,4.05a42.07,42.07,0,0,1,7.14,3.76A29.35,29.35,0,0,0,78.33,373c-1.66-2.14-3.89-3.34-6.06-4.86a.19.19,0,0,1,.2-.33,17.72,17.72,0,0,1,9.71,10.53,41.86,41.86,0,0,1,7.07,6.42c8.24,9.37,14.74,21.82,14.76,34.54,0,.3-.49.39-.54.07a70.42,70.42,0,0,0-15.73-33.77c-.58-.69-1.19-1.34-1.81-2a57.15,57.15,0,0,0-6.81-.5c-2.65,0-5.28.39-7.92.6-4.35.36-9.16.41-13.09-1.78-.17-.1,0-.4.14-.33,8.75,3.18,17.92-.85,26.69,1A40.92,40.92,0,0,0,72,374.33l-.8-.33c-5.62.68-11.54,2.14-17,.32a.13.13,0,0,1,.07-.26c5.28,1.32,10.35-.34,15.56-.61-5.68-2.21-11.46-4-17.15-6.16C52.2,367.11,52.19,366.67,52.7,366.8Z" style="fill: rgb(38, 50, 56); transform-origin: 78.1644px 391.707px;" id="elwiydsa17te" class="animable"></path><path d="M50.23,372.33a77,77,0,0,0,8.17.62c.06,0,.08.1,0,.11a17,17,0,0,1-8.24-.52C50,372.5,50.09,372.31,50.23,372.33Z" style="fill: rgb(38, 50, 56); transform-origin: 54.2638px 372.835px;" id="elzfhf82sx78f" class="animable"></path><path d="M68.68,366.94a13.41,13.41,0,0,1,4,2.81c.15.13,0,.38-.2.27-.69-.5-1.39-1-2.11-1.43a20.41,20.41,0,0,1-2-1.25C68.26,367.19,68.46,366.86,68.68,366.94Z" style="fill: rgb(38, 50, 56); transform-origin: 70.5399px 368.487px;" id="elb8nod4ojnw8" class="animable"></path><path d="M112.67,387.17c-.09.21.21.4.33.18,0,0,0,0,0,0a.27.27,0,0,0,.19.13,123.61,123.61,0,0,0,15.22,2.65c4.12.37,8.87.6,12.48-1.79,4.88-3.24,8.1-11.91,5.46-17.41-3.13-6.54-12.55-3-17.27-.66A34.65,34.65,0,0,0,112.67,387.17Z" style="fill: #90E1F9; transform-origin: 129.975px 378.775px;" id="eln42gvcsdlyn" class="animable"></path><path d="M109,390.19a48.75,48.75,0,0,1,9.09-6.92,31.16,31.16,0,0,1,9.22-9.39c.17-.12.33.16.16.29a41.12,41.12,0,0,0-7.76,8.17,85.62,85.62,0,0,1,11.4-5.19,15.14,15.14,0,0,1,6.12-6.14c.05,0,.12.05.07.09a24.92,24.92,0,0,0-5.53,5.8c2.31-.86,4.65-1.67,7-2.44.21-.07.29.25.09.32-4.16,1.63-8.42,3.35-12.54,5.32a48.38,48.38,0,0,0,15.19,0c.14,0,.2.18.06.22a30.12,30.12,0,0,1-16.12.24,75.18,75.18,0,0,0-7.65,4.28,19.08,19.08,0,0,1,6.18.5,46.81,46.81,0,0,0,10.86,1.23c.14,0,.18.22,0,.25-6.3,1.08-12.26-1.78-18.5-1a48.14,48.14,0,0,0-6.51,5.32,48.84,48.84,0,0,0-9.48,13.38c-2.63,5.35-4.05,11-6.18,16.54a.2.2,0,0,1-.39-.1C95.66,410,101.08,398,109,390.19Z" style="fill: rgb(38, 50, 56); transform-origin: 117.712px 396.111px;" id="elhvim5vpoadh" class="animable"></path><path d="M128,375.25a7.24,7.24,0,0,1,1.61-2,6.47,6.47,0,0,1,1.86-1.39c.07,0,.1.06.06.1-.51.59-1.23,1-1.79,1.58s-1,1.23-1.59,1.78A.09.09,0,0,1,128,375.25Z" style="fill: rgb(38, 50, 56); transform-origin: 129.774px 373.601px;" id="eloifjyttdmu" class="animable"></path><path d="M138.41,378.63c.93-.23,1.92-.22,2.87-.41a27.13,27.13,0,0,0,2.79-.84.11.11,0,0,1,.08.21,9.24,9.24,0,0,1-5.74,1.33A.15.15,0,0,1,138.41,378.63Z" style="fill: rgb(38, 50, 56); transform-origin: 141.26px 378.168px;" id="elm51d41oeca" class="animable"></path><polygon points="83.06 407.45 83.89 416.84 86.7 448.54 111.53 448.54 115.03 416.84 116.07 407.45 83.06 407.45" style="fill: rgb(55, 71, 79); transform-origin: 99.565px 427.995px;" id="elvdvjctsubur" class="animable"></polygon><polygon points="83.06 407.45 83.89 416.84 115.03 416.84 116.07 407.45 83.06 407.45" style="fill: rgb(38, 50, 56); transform-origin: 99.565px 412.145px;" id="elv9txky4gtqe" class="animable"></polygon><g id="elbnnhhe69w4m"><rect x="80.6" y="404.89" width="37.92" height="7.62" style="fill: rgb(55, 71, 79); transform-origin: 99.56px 408.7px; transform: rotate(180deg);" class="animable" id="ell9zjzjh18t"></rect></g></g><g id="freepik--Character--inject-61" class="animable" style="transform-origin: 384.995px 270.917px;"><path d="M378.73,95.93s-9.84-5.69-18.78-.36-13.4,18.8-12.1,30.2-8.11,18.72-9.27,27.15,4.31,12.44,6.09,16.9c2,5.12-6.84,23,14.8,27.57,27.06,5.74,37.77-10.77,35.26-24.64-1.23-6.79-5-11.67-4.77-17.14s4.12-9.76,2.23-16.74-4.58-6.09-5.47-17S388.31,98,378.73,95.93Z" style="fill: rgb(38, 50, 56); transform-origin: 366.752px 145.926px;" id="elohvr3kfuf4" class="animable"></path><path d="M361.83,95.35a33.62,33.62,0,0,0-13.13,15.21,31.33,31.33,0,0,0-2.49,9.84c-.36,4.44.24,8.61-1.5,12.89-2.77,6.85-8.17,12.51-8.07,20.21a19,19,0,0,0,3.08,10.09c2.28,3.52,5.57,6.32,7.47,10.08.07.16.32,0,.24-.13-1.57-3.34-4.18-5.91-6.33-8.91a19.3,19.3,0,0,1-3.79-12.17c.35-7.3,5.67-12.82,8.24-19.44A23.47,23.47,0,0,0,346.8,124a33,33,0,0,1,1.61-11,35.62,35.62,0,0,1,13.5-17.54S361.89,95.31,361.83,95.35Z" style="fill: rgb(38, 50, 56); transform-origin: 349.274px 134.54px;" id="elkxalzrrzjmr" class="animable"></path><path d="M348.84,178.15s0,0,0,0A0,0,0,0,0,348.84,178.15Z" style="fill: rgb(38, 50, 56); transform-origin: 348.84px 178.15px;" id="el9s0314oqmen" class="animable"></path><path d="M394.67,170.79c-.63-3.28-2.28-6.27-2.9-9.54-.75-3.94.32-7.82,1.14-11.66,1.17-5.47,1.15-10.66-1.18-15.88-1.51-3.37-3.36-6.53-4.45-10.07a41.52,41.52,0,0,1-1.86-11.84c0-.09-.14-.09-.14,0a37.69,37.69,0,0,0,3.32,16.91c1.42,3.12,3.21,6.05,4,9.4.95,4,.47,7.89-.3,11.89a45.31,45.31,0,0,0-1.16,8.1,22.7,22.7,0,0,0,1.77,8,28.15,28.15,0,0,1-.51,20.72c0,.11.16.2.21.09A26.74,26.74,0,0,0,394.67,170.79Z" style="fill: rgb(38, 50, 56); transform-origin: 390.182px 149.346px;" id="els90q86omxg" class="animable"></path><path d="M337.87,151.93c.35-6,4.62-10,7.27-15.2,2-3.9,3.38-8.09,2.83-12.44,0-.08-.14-.06-.14,0,.21,6.3-2.54,12-6.12,17.15-2.38,3.45-4.35,6.78-4.45,11s1.48,7.63,3.77,11.09c1.63,2.47,3.23,4.77,3.89,7.66a30.46,30.46,0,0,1,.24,8.79c0,.15.24.15.25,0,.49-4.5.64-8.87-1.56-13C341.16,161.85,337.51,158,337.87,151.93Z" style="fill: rgb(38, 50, 56); transform-origin: 342.674px 152.165px;" id="el3sogwnilxbi" class="animable"></path><path d="M395.79,166.54a37.35,37.35,0,0,0-3.35-5.89c-2.24-3.43-2.57-6.19-1.73-10.19a.08.08,0,0,0-.15,0c-1.17,3.29-1.48,6,.42,9.12,2.66,4.31,5.27,8.23,5.74,13.32.83,9-4.42,17.35-12.76,21.76-.12.06,0,.22.1.17,7-3.28,12-9.37,13.12-16.63A21.64,21.64,0,0,0,395.79,166.54Z" style="fill: rgb(38, 50, 56); transform-origin: 390.676px 172.624px;" id="eldsvofvuvoma" class="animable"></path><path d="M435.45,448c-2.28.76-67.3.57-69.78-1-.93-.59-1.46-10.07-1.77-21.53q-.11-3.72-.16-7.63c-.05-3.07-.09-6.19-.11-9.21-.07-13.58.11-25.54.11-25.54h42.33l0,25.54v9.21l-.22,7.63s24.86,11.21,27.39,13.23S437.72,447.27,435.45,448Z" style="fill: rgb(211, 118, 106); transform-origin: 400.033px 415.761px;" id="elulr2dyzbfgn" class="animable"></path><path d="M435.45,448c-2.28.76-67.3.57-69.78-1-.93-.59-1.46-10.07-1.77-21.53q-.11-3.72-.16-7.63c-.05-3.07-.09-6.19-.11-9.21h42.42v9.21l-.22,7.63s24.86,11.21,27.39,13.23S437.72,447.27,435.45,448Z" style="fill: rgb(255, 255, 255); transform-origin: 400.039px 428.531px;" id="elsr5z84384g" class="animable"></path><path d="M435.65,448.11c-1.49.49-29.18.59-49.35.17-4.66-.1-8.93-.23-12.37-.38-4.75-.22-7.93-.48-8.45-.8-1.14-.74-1.69-14.65-2-29.32h42.54l-.22,7.67s25,11.27,27.55,13.3S437.92,447.34,435.65,448.11Z" style="fill: #90E1F9; transform-origin: 400.058px 433.162px;" id="el7q7c338vb4s" class="animable"></path><path d="M434.71,445.49c-10.95-.3-55.19-.48-66,.06-.09,0-.09.06,0,.07,10.85.53,55.08.35,66,.05C435,445.67,435,445.5,434.71,445.49Z" style="fill: rgb(38, 50, 56); transform-origin: 401.785px 445.581px;" id="elju3a3mfcnfm" class="animable"></path><path d="M407.41,423c-4.31-.82-9.59-.17-12.9,2.89-.12.12.05.3.19.26a60.87,60.87,0,0,1,12.69-2.61A.27.27,0,0,0,407.41,423Z" style="fill: rgb(38, 50, 56); transform-origin: 401.07px 424.415px;" id="ellbjrzehg1t" class="animable"></path><path d="M410.51,424.91c-4.31-.82-9.58-.18-12.89,2.89-.13.12,0,.3.19.25a60.08,60.08,0,0,1,12.69-2.6A.27.27,0,0,0,410.51,424.91Z" style="fill: rgb(38, 50, 56); transform-origin: 404.171px 426.321px;" id="elbljds8zsto" class="animable"></path><path d="M413.62,426.79c-4.31-.82-9.59-.17-12.89,2.89-.13.12,0,.3.18.26a60.34,60.34,0,0,1,12.69-2.6A.28.28,0,0,0,413.62,426.79Z" style="fill: rgb(38, 50, 56); transform-origin: 407.258px 428.205px;" id="eljfd1qne0pdt" class="animable"></path><path d="M416.73,428.68c-4.31-.82-9.59-.18-12.89,2.89-.13.12,0,.3.18.25a61,61,0,0,1,12.69-2.6A.27.27,0,0,0,416.73,428.68Z" style="fill: rgb(38, 50, 56); transform-origin: 410.387px 430.091px;" id="elw6700gxdo8i" class="animable"></path><path d="M415.4,413.07c-1.69-2.34-4.85-1.3-6.65.21a23,23,0,0,0-6.67,9.86.11.11,0,0,0,.1.15c0,.33.31.68.67.55,3.57-1.31,7.54-2.27,10.6-4.63C415.24,417.83,417,415.28,415.4,413.07Zm-7.55,7.68c-1.73.68-3.49,1.28-5.21,2a68.4,68.4,0,0,1,4-5.67,23.26,23.26,0,0,1,2.29-2.47c1.29-1.16,6.37-3.63,5.6,1.1C414.13,418.35,409.93,419.93,407.85,420.75Z" style="fill: rgb(38, 50, 56); transform-origin: 409.05px 417.781px;" id="elf5px3jkbqmc" class="animable"></path><path d="M391.12,422c3.55,1.53,7.64,1.46,11.42,1.84a.53.53,0,0,0,.51-.69.12.12,0,0,0,.06-.18,22.92,22.92,0,0,0-8.92-7.88c-2.12-1-5.44-1.23-6.49,1.46S389.05,421.09,391.12,422Zm-1.94-3.08c-1.93-4.39,3.61-3.26,5.15-2.46a26.25,26.25,0,0,1,2.84,1.81c1.89,1.36,3.56,3,5.31,4.49-1.85-.3-3.7-.43-5.56-.66C394.71,421.8,390.25,421.32,389.18,418.9Z" style="fill: rgb(38, 50, 56); transform-origin: 395.288px 419.118px;" id="els7aucm6p16c" class="animable"></path><path d="M349.63,202.72s11.44,113.15,11.7,114.58c0,.19.12,2.37.23,5.92.62,19.48,2.14,80.21,2.14,80.21h46.68s-3.05-71.94-4.8-88.72c-2.23-21.41-16.27-112-16.27-112Z" style="fill: rgb(55, 71, 79); transform-origin: 380.005px 303.07px;" id="elo6v1ry5272" class="animable"></path><path d="M366.9,321.29q-2.16-36.78-6.49-73.38c-1.64-13.74-3.61-27.44-5.57-41.15,0-.12-.21-.11-.19,0,3.61,24.39,6.17,49,8.37,73.52s3.74,49.1,4.75,73.7c.57,13.94,1,27.89,1.45,41.83a.26.26,0,0,0,.51,0C369.07,371,368.36,346.11,366.9,321.29Z" style="fill: rgb(38, 50, 56); transform-origin: 362.189px 301.346px;" id="elzpvhpwkravm" class="animable"></path><path d="M407.43,395.91c-1.22-.16-2.55-.11-3.79-.16-1.4,0-2.8-.06-4.2-.11q-4.06-.15-8.11-.22c-5.45-.08-10.92-.05-16.36.12l-4.5.16c-1.59.06-3.2.2-4.79.2-.12,0-.12.14,0,.14,2.74,0,5.52.24,8.27.34s5.4.14,8.11.18c5.44.08,10.91,0,16.35-.17,1.5-.06,3-.08,4.5-.13.8,0,1.6-.07,2.4-.1s1.42,0,2.13-.07A.09.09,0,0,0,407.43,395.91Z" style="fill: rgb(38, 50, 56); transform-origin: 386.558px 395.984px;" id="eltkak7l6117" class="animable"></path><path d="M349.63,202.72s11.44,113.15,11.7,114.58c0,.19.12,2.37.23,5.92l22-120.5Z" style="fill: rgb(38, 50, 56); transform-origin: 366.595px 262.97px;" id="elfm9vxyqlkr7" class="animable"></path><path d="M319.38,446c-2.39-.25-61.53-27.25-63.14-29.71-.61-.92,2.82-9.77,7.27-20.34.95-2.28,1.86-4.68,3-7,1.43-2.94,2.89-5.85,4.34-8.65,6.25-12.15,12-22.11,12-22.11l37.46,17L309.47,397.3,305,406.39l-3.34,6.86s18,20.47,19.49,23.34S321.76,446.25,319.38,446Z" style="fill: rgb(211, 118, 106); transform-origin: 289.026px 402.098px;" id="el6d8fshhs3z6" class="animable"></path><path d="M319.38,446c-2.39-.25-61.53-27.25-63.14-29.71-.61-.92,2.82-9.77,7.27-20.34.95-2.28,1.86-4.68,3-7,1.43-2.94,2.89-5.85,4.34-8.65,11.57,5.18,28.24,12.48,38.62,17L305,406.39l-3.34,6.86s18,20.47,19.49,23.34S321.76,446.25,319.38,446Z" style="fill: rgb(255, 255, 255); transform-origin: 289.026px 413.153px;" id="elzmxsno1wcda" class="animable"></path><path d="M319.52,446.16c-2.39-.25-61.87-27.4-63.49-29.87-.74-1.14,4.5-14,10.32-27.51l38.75,17.55-3.36,6.9s18.12,20.58,19.6,23.48S321.92,446.42,319.52,446.16Z" style="fill: #90E1F9; transform-origin: 289.01px 417.474px;" id="elnoffpoib2tq" class="animable"></path><path d="M319.76,443.39c-9.86-4.79-50.08-23.2-60.19-27.2-.08,0-.11,0,0,.07,9.67,5,50,23.05,60.14,27.3C319.9,443.65,320,443.49,319.76,443.39Z" style="fill: rgb(38, 50, 56); transform-origin: 289.7px 429.888px;" id="elsmnro3cldjp" class="animable"></path><path d="M304.15,411.66c-3.59-2.53-8.66-4.11-12.93-2.69-.17.06-.09.29.06.31a61,61,0,0,1,12.63,2.86A.27.27,0,0,0,304.15,411.66Z" style="fill: rgb(38, 50, 56); transform-origin: 297.699px 410.296px;" id="eljdjl7b6sb4f" class="animable"></path><path d="M306.21,414.66c-3.59-2.53-8.67-4.12-12.94-2.69-.17.06-.09.29.06.31A60.8,60.8,0,0,1,306,415.14.27.27,0,0,0,306.21,414.66Z" style="fill: rgb(38, 50, 56); transform-origin: 299.745px 413.287px;" id="elqzf6cp4qns" class="animable"></path><path d="M308.26,417.66c-3.59-2.53-8.66-4.12-12.94-2.69-.16.06-.08.29.06.31A61,61,0,0,1,308,418.14.27.27,0,0,0,308.26,417.66Z" style="fill: rgb(38, 50, 56); transform-origin: 301.817px 416.302px;" id="el0mo86in0494" class="animable"></path><path d="M310.31,420.65c-3.59-2.52-8.66-4.11-12.93-2.68-.17.06-.09.29.06.31a60.31,60.31,0,0,1,12.63,2.86A.28.28,0,0,0,310.31,420.65Z" style="fill: rgb(38, 50, 56); transform-origin: 303.849px 419.289px;" id="el442odhm0v3e" class="animable"></path><path d="M315.54,405.89c-.57-2.83-3.88-3.18-6.14-2.55a22.93,22.93,0,0,0-10.15,6.23.11.11,0,0,0,0,.18.53.53,0,0,0,.39.77c3.79.28,7.8,1.05,11.56.16C313.43,410.15,316.08,408.56,315.54,405.89Zm-10,3.88c-1.87-.09-3.72-.28-5.59-.3,2-1.21,3.91-2.5,6-3.51a24.7,24.7,0,0,1,3.1-1.29c1.65-.53,7.31-.68,4.65,3.3C312.21,410.17,307.72,409.88,305.5,409.77Z" style="fill: rgb(38, 50, 56); transform-origin: 307.4px 407.085px;" id="elm0kt1djwm1k" class="animable"></path><path d="M289.75,404c2.6,2.85,6.35,4.48,9.64,6.38a.52.52,0,0,0,.75-.41.12.12,0,0,0,.13-.14A23,23,0,0,0,295.4,399c-1.52-1.8-4.45-3.36-6.52-1.35S288.22,402.32,289.75,404Zm-.5-3.61c.05-4.79,4.64-1.48,5.71-.11a26.15,26.15,0,0,1,1.83,2.82,69.38,69.38,0,0,1,3,6.28c-1.56-1-3.19-1.92-4.79-2.9C293.09,405.31,289.22,403,289.25,400.38Z" style="fill: rgb(38, 50, 56); transform-origin: 294.056px 403.571px;" id="el7m6tj7zysro" class="animable"></path><path d="M388.93,202.72s-1.76,16.34-13.16,24.66c0,0-21,84.13-24.27,93.78-5.63,16.63-35.89,72.94-35.89,72.94l-46.7-20s35.62-62.75,39.47-67.58c2.55-3.21,21.73-71.42,21.5-73.17-2.81-20.91,7.11-30.69,7.11-30.69Z" style="fill: rgb(55, 71, 79); transform-origin: 328.92px 298.38px;" id="el65uxlkgb02" class="animable"></path><path d="M356.6,208.64a15.58,15.58,0,0,1-5.71,8.2,19.31,19.31,0,0,1-10.37,3.56c-.63,0-.68,1,0,1,7.61,0,15.3-4.82,16.41-12.71C356.94,208.51,356.65,208.47,356.6,208.64Z" style="fill: rgb(38, 50, 56); transform-origin: 348.479px 214.966px;" id="elomf0ua360a" class="animable"></path><path d="M383.07,222.2a42,42,0,0,0-7.86,4.17c-2.61,1.62-5,3.51-7.55,5.26-.1.06,0,.22.09.16,2.65-1.52,5.4-2.84,8-4.41a50.09,50.09,0,0,0,7.42-5A.12.12,0,0,0,383.07,222.2Z" style="fill: rgb(38, 50, 56); transform-origin: 375.402px 227.002px;" id="elguy76p2ys7c" class="animable"></path><path d="M384.14,206.33c-.41,1.75-.91,3.47-1.37,5.2s-.77,3.28-1.28,4.88a8.4,8.4,0,0,1-2.48,4c-.67.57-1.41,1.07-2.12,1.58-.38.28-.79.55-1.19.83.06-.23.11-.47.16-.7.15-.66.29-1.33.44-2,.31-1.47.62-2.94.91-4.41.58-2.9,1.13-5.83,1.87-8.69a.09.09,0,0,0-.18-.05c-.86,2.82-1.79,5.62-2.56,8.48-.37,1.4-1.8,8.34-1.87,8.83s-.14,1-.18,1.53a5.93,5.93,0,0,0-.07,1.57c0,.13.17.11.23,0h0A6.64,6.64,0,0,0,375,226c.15-.5.29-1,.4-1.5,0-.18.08-.37.11-.55.71-.39,1.38-.91,2-1.35s1.45-.93,2.13-1.45a7.91,7.91,0,0,0,2.69-3.81,29,29,0,0,0,1.05-5c.31-2,.56-4,.93-5.93C384.34,206.27,384.17,206.21,384.14,206.33Z" style="fill: rgb(38, 50, 56); transform-origin: 379.255px 216.868px;" id="el9dnja14jyie" class="animable"></path><path d="M315.74,384.67c-1.05-.63-12.1-5.78-14.56-6.91-4.95-2.26-22.06-9.28-23.68-9.87-.53-.19-.57.1-.15.3,2.53,1.23,12.43,5.77,14.89,6.89,4.95,2.26,22.74,9.57,23.43,9.77C315.79,384.88,315.84,384.74,315.74,384.67Z" style="fill: rgb(38, 50, 56); transform-origin: 296.429px 376.341px;" id="el7psrvbcde9f" class="animable"></path><path d="M340,204.64a38.66,38.66,0,0,0-6.46,20.81A33,33,0,0,0,334,231c.08.46.13.92.24,1.37l.14.68a2.11,2.11,0,0,1,.08.58c-.11.84-.33,1.76-.53,2.64-.85,3.56-1.79,7.11-2.73,10.65-3.8,14.17-7.65,28.32-11.71,42.42l-3,10.56c-.53,1.76-1.05,3.51-1.61,5.25-.28.86-.56,1.75-.89,2.55s-.77,1.61-1.22,2.41c-3.45,6.45-7.19,12.77-10.79,19.15,0,0-18.41,30.93-22.2,38.06-.18.33-.09.54.25.1,3.29-4.29,15.28-25.06,22.76-37.68,3.74-6.32,7.43-12.65,11-19.11.45-.8.85-1.65,1.27-2.49s.65-1.76.94-2.64c.57-1.75,1.11-3.51,1.64-5.27,1.05-3.51,2.09-7,3.09-10.56,3.95-14.14,7.85-28.29,11.42-42.52.89-3.56,1.77-7.12,2.56-10.72.19-.91.4-1.77.51-2.75a2.35,2.35,0,0,0-.11-.78l-.14-.66c-.11-.44-.17-.89-.26-1.34a36.53,36.53,0,0,1-.49-5.43A38.86,38.86,0,0,1,340,204.64Z" style="fill: rgb(38, 50, 56); transform-origin: 309.845px 286.155px;" id="elkz0qesbs3t" class="animable"></path><path d="M364.62,144.18c3.8,12.38,23.37,44,36.08,46.66,10.22,2.16,38.14-.29,45.53-1.63,2.48-.45-1.88-29.56-4.8-29.56-6.88,0-28.69,7.84-34.58,5.69-2.31-.84-16-12.35-32.41-26.4C368.09,133.5,362.36,136.79,364.62,144.18Z" style="fill: rgb(211, 118, 106); transform-origin: 405.541px 163.966px;" id="ellf3k6m6w7wd" class="animable"></path><path d="M444.35,189.45c3.41-.24,18.95-2.7,23.12-4.36s15.82-7.28,14.88-10.6-4.49-2-4.49-2,4.55-3.16,3.29-6.42-6.69-.93-6.69-.93,4.43-3.58,2.94-6.74-6.56.09-6.56.09,4.2-3.09,1.89-5.18c-2.79-2.51-9.9,4-14.64,5.54-1.07.33-22.3,5.26-22.3,5.26Z" style="fill: rgb(211, 118, 106); transform-origin: 459.097px 171.095px;" id="el59z0pxwhfv3" class="animable"></path><path d="M471.28,158.27c-5.24,4.81-8.36,6-15.25,7.27-.14,0-.13.23,0,.22,6.86-.62,11-1.56,15.49-7.25C471.75,158.23,471.53,158,471.28,158.27Z" style="fill: rgb(38, 50, 56); transform-origin: 463.773px 161.955px;" id="elnwk7itgk0a" class="animable"></path><path d="M474.87,164.8c-5.88,4.53-9.26,5.86-16.38,7.7a.1.1,0,0,0,0,.19c7.13-1.23,11.24-2.26,16.52-7.56C475.29,164.89,475.13,164.59,474.87,164.8Z" style="fill: rgb(38, 50, 56); transform-origin: 466.789px 168.71px;" id="el60478fjfd6p" class="animable"></path><path d="M477.5,172.62c-6,4-9.65,5.59-16.79,6.5a.13.13,0,0,0,0,.26c7.38-.21,11.94-2.2,16.88-6.56C477.93,172.52,477.87,172.37,477.5,172.62Z" style="fill: rgb(38, 50, 56); transform-origin: 469.198px 175.937px;" id="el7znstueyhsc" class="animable"></path><g id="elu3b2ggjt2nm"><rect x="451.33" y="122.9" width="62.7" height="62.7" style="fill: rgb(255, 255, 255); transform-origin: 482.68px 154.25px; transform: rotate(180deg);" class="animable" id="elym48i5fk6xk"></rect></g><g id="el9tvezwwhrpg"><rect x="454.4" y="125.97" width="56.56" height="56.56" style="fill: #90E1F9; transform-origin: 482.68px 154.25px; transform: rotate(180deg);" class="animable" id="elv7onvb74wo"></rect></g><g id="elz6ccqdnd4n"><path d="M463.52,139.46a5.33,5.33,0,1,0,4.19-4.19A5.33,5.33,0,0,0,463.52,139.46Z" style="opacity: 0.1; transform-origin: 468.748px 140.498px;" class="animable" id="eleer8xxb8qmw"></path></g><g id="elbx4kumxim45"><polygon points="470.09 167.85 510.97 167.85 490.53 144.93 470.09 167.85" style="opacity: 0.1; transform-origin: 490.53px 156.39px;" class="animable" id="elf2ovmoijore"></polygon></g><polygon points="454.4 167.85 488.15 167.85 471.28 152.92 454.4 167.85" style="fill: #90E1F9; transform-origin: 471.275px 160.385px;" id="elxrky28n5mln" class="animable"></polygon><g id="el9p5l4q9ds48"><g style="opacity: 0.2; transform-origin: 471.275px 160.385px;" class="animable" id="el9apox7imd7c"><polygon points="454.4 167.85 488.15 167.85 471.28 152.92 454.4 167.85" id="elr62mrp1bamk" class="animable" style="transform-origin: 471.275px 160.385px;"></polygon></g></g><rect x="454.4" y="167.85" width="56.56" height="14.68" style="fill: #90E1F9; transform-origin: 482.68px 175.19px;" id="elt3nu20t4i2h" class="animable"></rect><g id="el73j6d8f8pfc"><rect x="454.4" y="167.85" width="56.56" height="14.68" style="opacity: 0.2; transform-origin: 482.68px 175.19px;" class="animable" id="elvxsh1fuovw9"></rect></g><path d="M431.37,164.88s5.34-7.14,8.37-9.77,17.95-8.22,19.34-5.07c1.8,4.07-6.17,9-10.39,10.9,0,0,4.17,9.41-.78,14.19S431.37,164.88,431.37,164.88Z" style="fill: rgb(211, 118, 106); transform-origin: 445.355px 162.586px;" id="elbd6w27hx707" class="animable"></path><path d="M459.21,151.32c-1,4.89-6.74,7-10.69,9.19a.41.41,0,0,0-.1.67c1.48,4.06,2.39,10.22-.23,13.95-.08.11.07.24.16.14,3.36-3.63,2.95-9.75,1-14.09,4.09-2.15,9.71-4.55,9.87-9.85A0,0,0,0,0,459.21,151.32Z" style="fill: rgb(38, 50, 56); transform-origin: 453.694px 163.313px;" id="el68zlc0syaeh" class="animable"></path><path d="M430.59,159.65l-.19,36s-21.83-.62-31.71-4.1-28-29.25-33.3-41-2.47-22.06,11.52-10.94,29.78,24.52,30.25,24.78S430.59,159.65,430.59,159.65Z" style="fill: #90E1F9; transform-origin: 396.743px 165.249px;" id="ellcsf58eehlp" class="animable"></path><g id="elmqlj6sd5o4"><path d="M373.37,138.1a.84.84,0,1,1-.84-.84A.84.84,0,0,1,373.37,138.1Zm-.84,18.15a.84.84,0,0,0,0,1.68.84.84,0,1,0,0-1.68Zm13.05,0a.84.84,0,1,0,0,1.68.84.84,0,1,0,0-1.68Zm12.3.45a.83.83,0,0,0,.74,1.22.82.82,0,0,0,.51-.17C398.72,157.41,398.3,157.07,397.88,156.7ZM366,146.78a.84.84,0,1,0,.84.84A.84.84,0,0,0,366,146.78Zm13.05,0a.84.84,0,1,0,.83.84A.83.83,0,0,0,379.06,146.78Zm6.52,28.46a.84.84,0,1,0,.84.84A.83.83,0,0,0,385.58,175.24Zm13,0a.84.84,0,1,0,.84.84A.84.84,0,0,0,398.62,175.24Zm13,0a.84.84,0,1,0,0,1.67.84.84,0,1,0,0-1.67Zm13,0a.84.84,0,1,0,.83.84A.83.83,0,0,0,424.71,175.24Zm-45.65-9.47a.84.84,0,1,0,.83.84A.83.83,0,0,0,379.06,165.77Zm13,0a.84.84,0,1,0,.84.84A.84.84,0,0,0,392.1,165.77Zm13,0a.84.84,0,1,0,.84.84A.84.84,0,0,0,405.14,165.77Zm13,0a.84.84,0,1,0,.84.84A.83.83,0,0,0,418.18,165.77Zm12.21.83a.78.78,0,0,0,.16.49v-1A.84.84,0,0,0,430.39,166.6Zm-5.68,27.63a.83.83,0,0,0-.84.83.87.87,0,0,0,.05.28l1.53.1h0a.79.79,0,0,0,.09-.38A.84.84,0,0,0,424.71,194.23Zm-32.61-9.48a.84.84,0,1,0,.84.84A.85.85,0,0,0,392.1,184.75Zm13,0a.84.84,0,1,0,.84.84A.85.85,0,0,0,405.14,184.75Zm13,0a.84.84,0,1,0,.84.84A.84.84,0,0,0,418.18,184.75Zm12.21.84a1,1,0,0,0,.05.31v-.63A.91.91,0,0,0,430.39,185.59Z" style="fill: rgb(2, 1, 0); opacity: 0.1; transform-origin: 397.775px 166.35px;" class="animable" id="elnym2ijb8s4"></path></g><path d="M423.36,178.18c0-2.58.12-12.85.36-15.37,0-.07.11-.05.11,0,.25,2.55.34,12.88.33,15.46,0,5.16,0,10.35-.35,15.48,0,.11-.14.12-.15,0C423.29,188.6,423.36,183.37,423.36,178.18Z" style="fill: rgb(38, 50, 56); transform-origin: 423.758px 178.3px;" id="el6v98861aqgd" class="animable"></path><g id="eluhzeeshlw9i"><path d="M416.32,194.73c-6.23-.61-13.16-1.59-17.63-3.17-9.87-3.48-28-29.26-33.3-41-4.5-10-3.12-19,6.1-14.49Z" style="opacity: 0.1; transform-origin: 389.614px 164.802px;" class="animable" id="el4sz4xeftf9g"></path></g><path d="M387.28,178.14l3.87,28.06-10.9.05-3.11-5.69-4.35,5.7c-14.06,0-32.1-.09-38.66-.6,0,0,9.63-52.34,21.92-65.49,6.14-6.58,13.3-6,17.83-1.37,1.15,1.18,14.8,19.49,16.2,26.46C391.3,171.41,387.28,178.14,387.28,178.14Z" style="fill: #90E1F9; transform-origin: 362.64px 170.768px;" id="elzl5nx530ci" class="animable"></path><path d="M334.13,205.66c6.56.51,24.61.61,38.66.6l4.35-5.69,3.1,5.68,10.92-.05-3.88-28.06s4-6.73,2.8-12.88c-.77-3.81-5.22-11-9.27-17-.06-.07-.11-.16-.17-.23-3.27-4.8-6.24-8.7-6.76-9.22-4.36-4.49-11.13-5.17-17.1.62h0a1.14,1.14,0,0,0-.16.15c-.19.18-.38.38-.57.58a33.64,33.64,0,0,0-4.82,7.27l-.21.4a136.58,136.58,0,0,0-8.11,21.48c0,.1-.06.19-.09.28C337.51,187.3,334.13,205.66,334.13,205.66Z" style="fill: #90E1F9; transform-origin: 362.645px 170.763px;" id="eln0f8u28oea" class="animable"></path><g id="eldhx937xzf58"><path d="M360.33,138.1a.84.84,0,1,1-.84-.84A.85.85,0,0,1,360.33,138.1Zm11.85-.76a.84.84,0,1,0,1.17.95A11.57,11.57,0,0,0,372.18,137.34Zm-25,19.31c-.15.41-.31.82-.47,1.24a.85.85,0,0,0,.59-.8A.93.93,0,0,0,347.17,156.65Zm12.32-.4a.84.84,0,1,0,.84.84A.84.84,0,0,0,359.49,156.25Zm13,0a.84.84,0,0,0,0,1.68.84.84,0,1,0,0-1.68Zm13.46.11a.81.81,0,0,0-.41-.11.84.84,0,0,0-.84.84.84.84,0,0,0,1.67,0h0Zm-33-9.58a.84.84,0,1,0,.84.84A.84.84,0,0,0,353,146.78Zm13,0a.84.84,0,1,0,.84.84A.84.84,0,0,0,366,146.78Zm13.05,0a.84.84,0,1,0,.83.84A.83.83,0,0,0,379.06,146.78Zm-32.61,28.46a.84.84,0,1,0,.84.84A.84.84,0,0,0,346.45,175.24Zm13,0a.84.84,0,1,0,.84.84A.84.84,0,0,0,359.49,175.24Zm13,0a.84.84,0,1,0,.84.84A.83.83,0,0,0,372.53,175.24Zm13.05,0a.84.84,0,1,0,.84.84A.83.83,0,0,0,385.58,175.24ZM353,165.77a.84.84,0,1,0,.84.84A.84.84,0,0,0,353,165.77Zm13,0a.84.84,0,1,0,0,1.67.84.84,0,1,0,0-1.67Zm13.05,0a.84.84,0,1,0,.83.84A.83.83,0,0,0,379.06,165.77Zm-32.61,28.45a.84.84,0,1,0,.84.84A.85.85,0,0,0,346.45,194.22Zm13,0a.84.84,0,1,0,.84.84A.85.85,0,0,0,359.49,194.22Zm13,0a.84.84,0,1,0,.84.84A.84.84,0,0,0,372.53,194.22Zm13.05,0a.84.84,0,1,0,.84.84A.84.84,0,0,0,385.58,194.22Zm-45.65-9.47a.84.84,0,1,0,.84.84A.84.84,0,0,0,339.93,184.75Zm13,0a.84.84,0,1,0,.84.84A.85.85,0,0,0,353,184.75Zm13,0a.84.84,0,1,0,0,1.68.84.84,0,1,0,0-1.68Zm13.05,0a.84.84,0,1,0,0,1.68.84.84,0,0,0,0-1.68Zm-39.13,19a.84.84,0,1,0,.84.84A.84.84,0,0,0,339.93,203.74Zm13,0a.84.84,0,1,0,.84.84A.85.85,0,0,0,353,203.74Zm13,0a.84.84,0,1,0,.84.84A.85.85,0,0,0,366,203.74Zm13.05,0-.17,0,.76,1.41a.82.82,0,0,0,.25-.59A.85.85,0,0,0,379.06,203.74Z" style="fill: rgb(2, 1, 0); opacity: 0.1; transform-origin: 362.65px 171.345px;" class="animable" id="elmpgbiyxoa2"></path></g><path d="M389.31,193.08c-.49-2.56-.86-4.57-1.26-7.15s-.86-5.15-1.23-7.73l0-.17.11-.16a19.59,19.59,0,0,0,2.63-6.49,14.07,14.07,0,0,0,.33-3.48,11.76,11.76,0,0,0-.53-3.44,41.2,41.2,0,0,0-2.81-6.58c-1.11-2.13-2-3.92-3.26-6-.21-.32-.08-.4.11-.14,1.24,1.69,2.6,4,3.66,5.85a36,36,0,0,1,3.17,6.59,12.16,12.16,0,0,1,.64,3.68,14.86,14.86,0,0,1-.32,3.71,19.22,19.22,0,0,1-2.86,6.83l.08-.34c.34,2.59.62,5.18.91,7.78.27,2.33.58,4.84.78,7.18C389.45,193.29,389.47,194,389.31,193.08Z" style="fill: rgb(38, 50, 56); transform-origin: 387.032px 172.561px;" id="elgaq1jj5p5cj" class="animable"></path><path d="M385.5,153.83a12.07,12.07,0,0,1,1.25,2.42,10.93,10.93,0,0,1,.41,1.3,5.14,5.14,0,0,1,.2,1.36c-.4-.83-.76-1.64-1.09-2.48A15,15,0,0,1,385.5,153.83Z" style="fill: rgb(38, 50, 56); transform-origin: 386.43px 156.37px;" id="eltgufv6m3lo" class="animable"></path><path d="M370.58,177.34a50.78,50.78,0,0,1,7.4.17c1.22.13,2.43.33,3.63.54.61.11,1.21.2,1.81.28a7.74,7.74,0,0,0,1.92.09,0,0,0,0,1,0,.09,13.82,13.82,0,0,1-1.8.22,13,13,0,0,1-1.76-.08c-1.24-.13-2.47-.31-3.71-.45-2.49-.28-5-.56-7.5-.65A.11.11,0,0,1,370.58,177.34Z" style="fill: rgb(38, 50, 56); transform-origin: 377.919px 178.005px;" id="el415xc9007p9" class="animable"></path><path d="M364.87,180.35a50.39,50.39,0,0,1,6-1.14c1-.14,2-.21,3-.25l1.46,0c.53,0,1.07.06,1.61,0,0,0,.06.09,0,.09-.51,0-1,.14-1.51.2l-1.51.17-3,.36c-2,.21-4,.45-6.05.74A.09.09,0,0,1,364.87,180.35Z" style="fill: rgb(38, 50, 56); transform-origin: 370.888px 179.74px;" id="elgaqz7tm83t" class="animable"></path><path d="M354.6,142.28c-10.5,14.2-30.54,47.82-23.81,55.22,11,12.18,37.59,22.68,45.84,24.68,3.6.86,15.64-25.13,12.24-27.16-4.08-2.45-32.57-11.16-32.49-13.59.05-1.37,3-12.9,5.46-27.69C364.67,136.58,359.6,135.51,354.6,142.28Z" style="fill: rgb(211, 118, 106); transform-origin: 359.453px 180.301px;" id="elib7cd22yp9" class="animable"></path><path d="M375.9,193.53s10.73-3.44,17.86-5.36c4-1.07,10.95-2.29,14.23-1.74,4.9.82,24.89,7.38,23.41,12.27-1.35,4.41-17.81-3.41-17.81-3.41s17.31,6.43,14.71,11.45-20-6.29-20-6.29,17.63,7,14.13,11.76c-2.65,3.59-19-5.77-19-5.77s15.11,6.13,12.55,9.94c-2.83,4.21-18.47-3.48-18.47-3.48-8.14,8.6-15.49,9.71-20.86,9.28C375.35,222.07,375.9,193.53,375.9,193.53Z" style="fill: rgb(211, 118, 106); transform-origin: 403.631px 204.276px;" id="el9xurtvjef9f" class="animable"></path><path d="M407.75,192.69c2.06.68,4.15,1.35,6.14,2.21s4,1.8,5.86,2.84a37.12,37.12,0,0,1,7,4.77c-4.06-3-11.14-6.21-13.14-7.07s-3.93-1.82-5.92-2.68C407.66,192.74,407.7,192.67,407.75,192.69Z" style="fill: rgb(38, 50, 56); transform-origin: 417.215px 197.598px;" id="elbssnus0t6vk" class="animable"></path><path d="M404.5,199.82a68.82,68.82,0,0,1,15.06,6.59c.19.1.08.16-.12.07-2.5-1.16-12.73-5.41-15-6.6A0,0,0,1,1,404.5,199.82Z" style="fill: rgb(38, 50, 56); transform-origin: 412.049px 203.172px;" id="el6afh0vbwo36" class="animable"></path><path d="M400.62,205.45a47.35,47.35,0,0,1,10.94,5c.18.1,0,.17-.17.08-3.55-1.66-6.05-2.66-10.82-4.95C400.5,205.56,400.53,205.42,400.62,205.45Z" style="fill: rgb(38, 50, 56); transform-origin: 406.083px 208.009px;" id="el2nured0th5l" class="animable"></path><path d="M379.34,190.68,364,225s-29.45-18.46-34.79-28.51c-4.79-9,18.21-45.8,23.54-53s10.64-8.4,10.05,3.59-5.55,33.74-5.55,34.08S379.34,190.68,379.34,190.68Z" style="fill: #90E1F9; transform-origin: 353.949px 181.53px;" id="elyj65qk1fc1" class="animable"></path><g id="eljq5yjwkt7k"><path d="M360.32,138.2a.84.84,0,0,1-1.65.07A2.62,2.62,0,0,1,360.32,138.2Zm-13.87,18.05a.84.84,0,1,0,.84.84A.84.84,0,0,0,346.45,156.25Zm13,0a.84.84,0,1,0,.84.84A.84.84,0,0,0,359.49,156.25ZM353,146.78a.84.84,0,1,0,.84.84A.84.84,0,0,0,353,146.78ZM334.09,175.6c-.19.43-.4.87-.6,1.3a.83.83,0,0,0,.6-1.3Zm12.36-.36a.84.84,0,1,0,.84.84A.84.84,0,0,0,346.45,175.24Zm-6.52-9.47a.84.84,0,1,0,.84.84A.83.83,0,0,0,339.93,165.77Zm13,0a.84.84,0,1,0,.84.84A.84.84,0,0,0,353,165.77Zm-19.56,28.45a.84.84,0,0,0,0,1.68.84.84,0,0,0,0-1.68Zm13,0a.84.84,0,1,0,.84.84A.85.85,0,0,0,346.45,194.22Zm13,0a.84.84,0,1,0,.84.84A.85.85,0,0,0,359.49,194.22Zm13,0a.84.84,0,1,0,.84.84A.84.84,0,0,0,372.53,194.22Zm-32.6-9.47a.84.84,0,1,0,.84.84A.84.84,0,0,0,339.93,184.75Zm13,0a.84.84,0,1,0,.84.84A.85.85,0,0,0,353,184.75Zm13.86.69-1.28-.54a.84.84,0,0,0,.46,1.53.85.85,0,0,0,.84-.84A.41.41,0,0,0,366.83,185.44Zm-7.34,27.77a.84.84,0,1,0,.84.84A.85.85,0,0,0,359.49,213.21Zm-19.56-9.47a.84.84,0,1,0,.84.84A.84.84,0,0,0,339.93,203.74Zm13,0a.84.84,0,1,0,.84.84A.85.85,0,0,0,353,203.74Zm13,0a.84.84,0,1,0,.84.84A.85.85,0,0,0,366,203.74Z" style="fill: rgb(2, 1, 0); opacity: 0.1; transform-origin: 352.87px 176.495px;" class="animable" id="elg6lbkuvk91"></path></g><path d="M365,204c1.12-2.6,5.7-12.89,7.07-15.31,0-.07.14,0,.12.07-.83,2.69-5.21,13.15-6.33,15.74-2.25,5.19-4.45,10.45-7.1,15.44a.1.1,0,0,1-.18-.07C360.43,214.52,362.77,209.28,365,204Z" style="fill: rgb(38, 50, 56); transform-origin: 365.386px 204.321px;" id="eluvbokxiz2bd" class="animable"></path><path d="M359.64,167.87c.86-4.56,1.63-9.14,2.41-13.72a.08.08,0,0,1,.15,0c-.21,2.59-.52,5.16-.88,7.72.42-1.32.8-2.66,1.16-4,0-.1.17-.05.15,0a27.08,27.08,0,0,1-1.49,5.17c-.24,1.56-.49,3.12-.77,4.67-.4,2.27-2.43,12.24-2.73,13.36,3.83,1.31,7.23,2.94,11,4.48q2.76,1.13,5.49,2.31a48.38,48.38,0,0,1,5.58,2.42c.1.06-.23.53-.35.77s-.23.09-.19,0,.07-.24.09-.33c-.91-.24-4.55-1.78-5.49-2.16l-5.5-2.26c-3.73-1.53-11.46-4.71-11.46-4.77C356.89,180.53,359.2,170.18,359.64,167.87Z" style="fill: rgb(38, 50, 56); transform-origin: 368.269px 172.639px;" id="el4x8sz351t7d" class="animable"></path><path d="M362.72,136.87c.12,1.11,4.42,8.7,9.36,9,1.61.12,2.62-8.64,2.62-8.64l.22-.63,3.11-8.8-9.82-8.1-1.43-1.08s-.69,2.46-1.52,5.54l-.12.44c-.05.17-.1.34-.14.5-.13.46-.26.93-.38,1.4s-.18.7-.27,1.08l-.27,1.12A61,61,0,0,0,362.72,136.87Z" style="fill: rgb(211, 118, 106); transform-origin: 370.375px 132.246px;" id="elu0c4701wahm" class="animable"></path><path d="M365.26,124.21a18.71,18.71,0,0,0,9.66,12.44l3.11-8.8-9.82-8.1-1.43-1.08S366.09,121.13,365.26,124.21Z" style="fill: rgb(38, 50, 56); transform-origin: 371.645px 127.66px;" id="elojn5prwuogd" class="animable"></path><path d="M391.55,113c2.91,16.13-6.43,19.69-9.91,20.32-3.16.56-14,2.09-18.54-13.66s2-22.2,9.17-23.87S388.64,96.87,391.55,113Z" style="fill: rgb(211, 118, 106); transform-origin: 376.851px 114.502px;" id="ellmb6ut7gymn" class="animable"></path><path d="M388.77,110.63a8.47,8.47,0,0,1-1.13-.06,1.76,1.76,0,0,1-1.14-.28.56.56,0,0,1-.11-.7,1.44,1.44,0,0,1,1.35-.56,2.16,2.16,0,0,1,1.44.54A.62.62,0,0,1,388.77,110.63Z" style="fill: rgb(38, 50, 56); transform-origin: 387.839px 109.823px;" id="el2a91249rwt2" class="animable"></path><path d="M377.66,112.35c.37-.11.7-.27,1.06-.41a1.86,1.86,0,0,0,1-.61.59.59,0,0,0-.11-.71,1.46,1.46,0,0,0-1.46-.11,2.11,2.11,0,0,0-1.2.95A.62.62,0,0,0,377.66,112.35Z" style="fill: rgb(38, 50, 56); transform-origin: 378.335px 111.368px;" id="elxmtmrw3kmys" class="animable"></path><path d="M380.85,115.92s-.07.06-.06.11c.23,1.09.32,2.38-.61,2.93,0,0,0,.07,0,.05C381.38,118.62,381.25,116.91,380.85,115.92Z" style="fill: rgb(38, 50, 56); transform-origin: 380.656px 117.467px;" id="el9zf8q34v95l" class="animable"></path><path d="M379.66,115c-1.79.18-1.28,3.75.38,3.58S381.17,114.79,379.66,115Z" style="fill: rgb(38, 50, 56); transform-origin: 379.799px 116.789px;" id="elnkey5waqick" class="animable"></path><path d="M379,115.23c-.28.25-.54.65-.91.74s-.81-.22-1.14-.54c0,0-.06,0-.06,0,.09.68.45,1.35,1.2,1.35s1.07-.68,1.15-1.39C379.24,115.31,379.1,115.14,379,115.23Z" style="fill: rgb(38, 50, 56); transform-origin: 378.065px 115.992px;" id="ellnjgrr7q32" class="animable"></path><path d="M387,114.81s.1,0,.1.09c.11,1.11.43,2.36,1.48,2.6,0,0,0,.06,0,.06C387.3,117.55,386.89,115.88,387,114.81Z" style="fill: rgb(38, 50, 56); transform-origin: 387.781px 116.185px;" id="eljfc2z9l0qf" class="animable"></path><path d="M387.8,113.53c1.76-.38,2.37,3.17.74,3.52S386.32,113.84,387.8,113.53Z" style="fill: rgb(38, 50, 56); transform-origin: 388.221px 115.288px;" id="elwczdohtnt7g" class="animable"></path><path d="M388.58,113.63c.31.14.65.43,1,.4s.61-.48.79-.89c0,0,.06,0,.07,0,.13.68,0,1.42-.6,1.66s-1.11-.28-1.39-.93C388.39,113.78,388.45,113.57,388.58,113.63Z" style="fill: rgb(38, 50, 56); transform-origin: 389.456px 114px;" id="elkdiyewppxo" class="animable"></path><path d="M382,125c.29.23.59.56,1,.56a3.11,3.11,0,0,0,1.17-.39,0,0,0,0,1,.05,0,1.52,1.52,0,0,1-1.35.74,1.17,1.17,0,0,1-1-.9A.06.06,0,0,1,382,125Z" style="fill: rgb(38, 50, 56); transform-origin: 383.045px 125.425px;" id="ellrtab1tpg" class="animable"></path><path d="M386,120.31s.48,1.61.6,2.39c0,.07-.17.14-.43.19h0a3.75,3.75,0,0,1-3.8-.83c-.07-.07,0-.16.1-.13a5.57,5.57,0,0,0,3.52.45c0-.22-.92-2.73-.8-2.76a6.92,6.92,0,0,1,1.83.13c-.9-3.39-2.34-6.61-3.19-10a.1.1,0,0,1,.19-.08,56.45,56.45,0,0,1,3.9,10.62C388,120.73,386.34,120.39,386,120.31Z" style="fill: rgb(38, 50, 56); transform-origin: 385.132px 116.35px;" id="el5h3gjanc6u6" class="animable"></path><path d="M364.43,120.13c3.07,0,3-7,3-7s12.65-3.77,12.46-14.42a17.93,17.93,0,0,0,10.16,8.64s-1.86-11.47-11.27-12.59c0,0-11.84-2.75-17.12,7S362.36,120.12,364.43,120.13Z" style="fill: rgb(38, 50, 56); transform-origin: 374.794px 107.266px;" id="eli1g8yvh42of" class="animable"></path><path d="M379.84,97.91a11.59,11.59,0,0,1,0,4.87,12,12,0,0,1-1.92,4.54,9,9,0,0,1-.77,1l-.39.48-.45.43c-.31.28-.6.57-.92.83s-.66.48-1,.72l-.51.34-.54.29-1.09.58c-.75.31-1.52.58-2.28.84.7-.41,1.43-.75,2.12-1.16l1-.65.5-.33.46-.37.93-.75c.29-.27.56-.56.84-.83l.41-.42.37-.46a9.14,9.14,0,0,0,.71-.93,13.92,13.92,0,0,0,2-4.26,15.35,15.35,0,0,0,.45-2.34A14.74,14.74,0,0,0,379.84,97.91Z" style="fill: rgb(38, 50, 56); transform-origin: 375.034px 105.37px;" id="elaqa40rjy8t4" class="animable"></path><path d="M364.14,125.62a3.26,3.26,0,0,0,.77.13,2.7,2.7,0,0,0,.77,0,2.27,2.27,0,0,0,.92-.39,2.93,2.93,0,0,0,.57-.53,3.14,3.14,0,0,0,.53-1l-1.3-4.28s-4-4.76-6.23-3.28S361.33,124.87,364.14,125.62Z" style="fill: rgb(211, 118, 106); transform-origin: 363.574px 120.881px;" id="elpycvgupbrgm" class="animable"></path><path d="M361.18,118.26s0,.06,0,.08c2,.59,3.13,2.26,4,4a1.52,1.52,0,0,0-2.31-.21.06.06,0,0,0,.06.1,1.69,1.69,0,0,1,1.92.42,8.12,8.12,0,0,1,1,1.43c.11.16.41,0,.32-.15v0C366,121.49,363.81,118.27,361.18,118.26Z" style="fill: rgb(38, 50, 56); transform-origin: 363.683px 121.203px;" id="el6n9v4i9bsd6" class="animable"></path><path d="M364.3,124.92a.76.76,0,1,0,.51-1A.77.77,0,0,0,364.3,124.92Z" style="fill: rgb(255, 255, 255); transform-origin: 365.013px 124.653px;" id="eltd8nnjglya" class="animable"></path><path d="M362.64,123.92a.55.55,0,0,0,.67.36.54.54,0,0,0-.31-1A.54.54,0,0,0,362.64,123.92Z" style="fill: rgb(255, 255, 255); transform-origin: 363.097px 123.79px;" id="elxr13uutzyw" class="animable"></path></g><defs>     <filter id="active" height="200%">         <feMorphology in="SourceAlpha" result="DILATED" operator="dilate" radius="2"></feMorphology>                <feFlood flood-color="#32DFEC" flood-opacity="1" result="PINK"></feFlood>        <feComposite in="PINK" in2="DILATED" operator="in" result="OUTLINE"></feComposite>        <feMerge>            <feMergeNode in="OUTLINE"></feMergeNode>            <feMergeNode in="SourceGraphic"></feMergeNode>        </feMerge>    </filter>    <filter id="hover" height="200%">        <feMorphology in="SourceAlpha" result="DILATED" operator="dilate" radius="2"></feMorphology>                <feFlood flood-color="#ff0000" flood-opacity="0.5" result="PINK"></feFlood>        <feComposite in="PINK" in2="DILATED" operator="in" result="OUTLINE"></feComposite>        <feMerge>            <feMergeNode in="OUTLINE"></feMergeNode>            <feMergeNode in="SourceGraphic"></feMergeNode>        </feMerge>            <feColorMatrix type="matrix" values="0   0   0   0   0                0   1   0   0   0                0   0   0   0   0                0   0   0   1   0 "></feColorMatrix>    </filter></defs></svg>